<?xml version="1.0" encoding="utf-8" standalone="no"?>
<!DOCTYPE svg PUBLIC "-//W3C//DTD SVG 1.1//EN"
  "http://www.w3.org/Graphics/SVG/1.1/DTD/svg11.dtd">
<svg xmlns:xlink="http://www.w3.org/1999/xlink" width="936pt" height="432pt" viewBox="0 0 936 432" xmlns="http://www.w3.org/2000/svg" version="1.1">
 <metadata>
  <rdf:RDF xmlns:dc="http://purl.org/dc/elements/1.1/" xmlns:cc="http://creativecommons.org/ns#" xmlns:rdf="http://www.w3.org/1999/02/22-rdf-syntax-ns#">
   <cc:Work>
    <dc:type rdf:resource="http://purl.org/dc/dcmitype/StillImage"/>
    <dc:date>2023-04-17T11:07:54.160869</dc:date>
    <dc:format>image/svg+xml</dc:format>
    <dc:creator>
     <cc:Agent>
      <dc:title>Matplotlib v3.7.1, https://matplotlib.org/</dc:title>
     </cc:Agent>
    </dc:creator>
   </cc:Work>
  </rdf:RDF>
 </metadata>
 <defs>
  <style type="text/css">*{stroke-linejoin: round; stroke-linecap: butt}</style>
 </defs>
 <g id="figure_1">
  <g id="patch_1">
   <path d="M 0 432 
L 936 432 
L 936 0 
L 0 0 
z
" style="fill: #ffffff"/>
  </g>
  <g id="axes_1">
   <g id="patch_2">
    <path d="M 117 384.48 
L 842.4 384.48 
L 842.4 51.84 
L 117 51.84 
z
" style="fill: #ffffff"/>
   </g>
   <g id="matplotlib.axis_1">
    <g id="xtick_1">
     <g id="line2d_1">
      <defs>
       <path id="m3ea07f5c97" d="M 0 0 
L 0 3.5 
" style="stroke: #000000; stroke-width: 0.8"/>
      </defs>
      <g>
       <use xlink:href="#m3ea07f5c97" x="117" y="384.48" style="stroke: #000000; stroke-width: 0.8"/>
      </g>
     </g>
     <g id="text_1">
      <!-- 2012 -->
      <g transform="translate(104.275 399.078438) scale(0.1 -0.1)">
       <defs>
        <path id="DejaVuSans-32" d="M 1228 531 
L 3431 531 
L 3431 0 
L 469 0 
L 469 531 
Q 828 903 1448 1529 
Q 2069 2156 2228 2338 
Q 2531 2678 2651 2914 
Q 2772 3150 2772 3378 
Q 2772 3750 2511 3984 
Q 2250 4219 1831 4219 
Q 1534 4219 1204 4116 
Q 875 4013 500 3803 
L 500 4441 
Q 881 4594 1212 4672 
Q 1544 4750 1819 4750 
Q 2544 4750 2975 4387 
Q 3406 4025 3406 3419 
Q 3406 3131 3298 2873 
Q 3191 2616 2906 2266 
Q 2828 2175 2409 1742 
Q 1991 1309 1228 531 
z
" transform="scale(0.015625)"/>
        <path id="DejaVuSans-30" d="M 2034 4250 
Q 1547 4250 1301 3770 
Q 1056 3291 1056 2328 
Q 1056 1369 1301 889 
Q 1547 409 2034 409 
Q 2525 409 2770 889 
Q 3016 1369 3016 2328 
Q 3016 3291 2770 3770 
Q 2525 4250 2034 4250 
z
M 2034 4750 
Q 2819 4750 3233 4129 
Q 3647 3509 3647 2328 
Q 3647 1150 3233 529 
Q 2819 -91 2034 -91 
Q 1250 -91 836 529 
Q 422 1150 422 2328 
Q 422 3509 836 4129 
Q 1250 4750 2034 4750 
z
" transform="scale(0.015625)"/>
        <path id="DejaVuSans-31" d="M 794 531 
L 1825 531 
L 1825 4091 
L 703 3866 
L 703 4441 
L 1819 4666 
L 2450 4666 
L 2450 531 
L 3481 531 
L 3481 0 
L 794 0 
L 794 531 
z
" transform="scale(0.015625)"/>
       </defs>
       <use xlink:href="#DejaVuSans-32"/>
       <use xlink:href="#DejaVuSans-30" x="63.623047"/>
       <use xlink:href="#DejaVuSans-31" x="127.246094"/>
       <use xlink:href="#DejaVuSans-32" x="190.869141"/>
      </g>
     </g>
    </g>
    <g id="xtick_2">
     <g id="line2d_2">
      <g>
       <use xlink:href="#m3ea07f5c97" x="182.945455" y="384.48" style="stroke: #000000; stroke-width: 0.8"/>
      </g>
     </g>
     <g id="text_2">
      <!-- 2013 -->
      <g transform="translate(170.220455 399.078438) scale(0.1 -0.1)">
       <defs>
        <path id="DejaVuSans-33" d="M 2597 2516 
Q 3050 2419 3304 2112 
Q 3559 1806 3559 1356 
Q 3559 666 3084 287 
Q 2609 -91 1734 -91 
Q 1441 -91 1130 -33 
Q 819 25 488 141 
L 488 750 
Q 750 597 1062 519 
Q 1375 441 1716 441 
Q 2309 441 2620 675 
Q 2931 909 2931 1356 
Q 2931 1769 2642 2001 
Q 2353 2234 1838 2234 
L 1294 2234 
L 1294 2753 
L 1863 2753 
Q 2328 2753 2575 2939 
Q 2822 3125 2822 3475 
Q 2822 3834 2567 4026 
Q 2313 4219 1838 4219 
Q 1578 4219 1281 4162 
Q 984 4106 628 3988 
L 628 4550 
Q 988 4650 1302 4700 
Q 1616 4750 1894 4750 
Q 2613 4750 3031 4423 
Q 3450 4097 3450 3541 
Q 3450 3153 3228 2886 
Q 3006 2619 2597 2516 
z
" transform="scale(0.015625)"/>
       </defs>
       <use xlink:href="#DejaVuSans-32"/>
       <use xlink:href="#DejaVuSans-30" x="63.623047"/>
       <use xlink:href="#DejaVuSans-31" x="127.246094"/>
       <use xlink:href="#DejaVuSans-33" x="190.869141"/>
      </g>
     </g>
    </g>
    <g id="xtick_3">
     <g id="line2d_3">
      <g>
       <use xlink:href="#m3ea07f5c97" x="248.890909" y="384.48" style="stroke: #000000; stroke-width: 0.8"/>
      </g>
     </g>
     <g id="text_3">
      <!-- 2014 -->
      <g transform="translate(236.165909 399.078438) scale(0.1 -0.1)">
       <defs>
        <path id="DejaVuSans-34" d="M 2419 4116 
L 825 1625 
L 2419 1625 
L 2419 4116 
z
M 2253 4666 
L 3047 4666 
L 3047 1625 
L 3713 1625 
L 3713 1100 
L 3047 1100 
L 3047 0 
L 2419 0 
L 2419 1100 
L 313 1100 
L 313 1709 
L 2253 4666 
z
" transform="scale(0.015625)"/>
       </defs>
       <use xlink:href="#DejaVuSans-32"/>
       <use xlink:href="#DejaVuSans-30" x="63.623047"/>
       <use xlink:href="#DejaVuSans-31" x="127.246094"/>
       <use xlink:href="#DejaVuSans-34" x="190.869141"/>
      </g>
     </g>
    </g>
    <g id="xtick_4">
     <g id="line2d_4">
      <g>
       <use xlink:href="#m3ea07f5c97" x="314.836364" y="384.48" style="stroke: #000000; stroke-width: 0.8"/>
      </g>
     </g>
     <g id="text_4">
      <!-- 2015 -->
      <g transform="translate(302.111364 399.078438) scale(0.1 -0.1)">
       <defs>
        <path id="DejaVuSans-35" d="M 691 4666 
L 3169 4666 
L 3169 4134 
L 1269 4134 
L 1269 2991 
Q 1406 3038 1543 3061 
Q 1681 3084 1819 3084 
Q 2600 3084 3056 2656 
Q 3513 2228 3513 1497 
Q 3513 744 3044 326 
Q 2575 -91 1722 -91 
Q 1428 -91 1123 -41 
Q 819 9 494 109 
L 494 744 
Q 775 591 1075 516 
Q 1375 441 1709 441 
Q 2250 441 2565 725 
Q 2881 1009 2881 1497 
Q 2881 1984 2565 2268 
Q 2250 2553 1709 2553 
Q 1456 2553 1204 2497 
Q 953 2441 691 2322 
L 691 4666 
z
" transform="scale(0.015625)"/>
       </defs>
       <use xlink:href="#DejaVuSans-32"/>
       <use xlink:href="#DejaVuSans-30" x="63.623047"/>
       <use xlink:href="#DejaVuSans-31" x="127.246094"/>
       <use xlink:href="#DejaVuSans-35" x="190.869141"/>
      </g>
     </g>
    </g>
    <g id="xtick_5">
     <g id="line2d_5">
      <g>
       <use xlink:href="#m3ea07f5c97" x="380.781818" y="384.48" style="stroke: #000000; stroke-width: 0.8"/>
      </g>
     </g>
     <g id="text_5">
      <!-- 2016 -->
      <g transform="translate(368.056818 399.078438) scale(0.1 -0.1)">
       <defs>
        <path id="DejaVuSans-36" d="M 2113 2584 
Q 1688 2584 1439 2293 
Q 1191 2003 1191 1497 
Q 1191 994 1439 701 
Q 1688 409 2113 409 
Q 2538 409 2786 701 
Q 3034 994 3034 1497 
Q 3034 2003 2786 2293 
Q 2538 2584 2113 2584 
z
M 3366 4563 
L 3366 3988 
Q 3128 4100 2886 4159 
Q 2644 4219 2406 4219 
Q 1781 4219 1451 3797 
Q 1122 3375 1075 2522 
Q 1259 2794 1537 2939 
Q 1816 3084 2150 3084 
Q 2853 3084 3261 2657 
Q 3669 2231 3669 1497 
Q 3669 778 3244 343 
Q 2819 -91 2113 -91 
Q 1303 -91 875 529 
Q 447 1150 447 2328 
Q 447 3434 972 4092 
Q 1497 4750 2381 4750 
Q 2619 4750 2861 4703 
Q 3103 4656 3366 4563 
z
" transform="scale(0.015625)"/>
       </defs>
       <use xlink:href="#DejaVuSans-32"/>
       <use xlink:href="#DejaVuSans-30" x="63.623047"/>
       <use xlink:href="#DejaVuSans-31" x="127.246094"/>
       <use xlink:href="#DejaVuSans-36" x="190.869141"/>
      </g>
     </g>
    </g>
    <g id="xtick_6">
     <g id="line2d_6">
      <g>
       <use xlink:href="#m3ea07f5c97" x="446.727273" y="384.48" style="stroke: #000000; stroke-width: 0.8"/>
      </g>
     </g>
     <g id="text_6">
      <!-- 2017 -->
      <g transform="translate(434.002273 399.078438) scale(0.1 -0.1)">
       <defs>
        <path id="DejaVuSans-37" d="M 525 4666 
L 3525 4666 
L 3525 4397 
L 1831 0 
L 1172 0 
L 2766 4134 
L 525 4134 
L 525 4666 
z
" transform="scale(0.015625)"/>
       </defs>
       <use xlink:href="#DejaVuSans-32"/>
       <use xlink:href="#DejaVuSans-30" x="63.623047"/>
       <use xlink:href="#DejaVuSans-31" x="127.246094"/>
       <use xlink:href="#DejaVuSans-37" x="190.869141"/>
      </g>
     </g>
    </g>
    <g id="xtick_7">
     <g id="line2d_7">
      <g>
       <use xlink:href="#m3ea07f5c97" x="512.672727" y="384.48" style="stroke: #000000; stroke-width: 0.8"/>
      </g>
     </g>
     <g id="text_7">
      <!-- 2018 -->
      <g transform="translate(499.947727 399.078438) scale(0.1 -0.1)">
       <defs>
        <path id="DejaVuSans-38" d="M 2034 2216 
Q 1584 2216 1326 1975 
Q 1069 1734 1069 1313 
Q 1069 891 1326 650 
Q 1584 409 2034 409 
Q 2484 409 2743 651 
Q 3003 894 3003 1313 
Q 3003 1734 2745 1975 
Q 2488 2216 2034 2216 
z
M 1403 2484 
Q 997 2584 770 2862 
Q 544 3141 544 3541 
Q 544 4100 942 4425 
Q 1341 4750 2034 4750 
Q 2731 4750 3128 4425 
Q 3525 4100 3525 3541 
Q 3525 3141 3298 2862 
Q 3072 2584 2669 2484 
Q 3125 2378 3379 2068 
Q 3634 1759 3634 1313 
Q 3634 634 3220 271 
Q 2806 -91 2034 -91 
Q 1263 -91 848 271 
Q 434 634 434 1313 
Q 434 1759 690 2068 
Q 947 2378 1403 2484 
z
M 1172 3481 
Q 1172 3119 1398 2916 
Q 1625 2713 2034 2713 
Q 2441 2713 2670 2916 
Q 2900 3119 2900 3481 
Q 2900 3844 2670 4047 
Q 2441 4250 2034 4250 
Q 1625 4250 1398 4047 
Q 1172 3844 1172 3481 
z
" transform="scale(0.015625)"/>
       </defs>
       <use xlink:href="#DejaVuSans-32"/>
       <use xlink:href="#DejaVuSans-30" x="63.623047"/>
       <use xlink:href="#DejaVuSans-31" x="127.246094"/>
       <use xlink:href="#DejaVuSans-38" x="190.869141"/>
      </g>
     </g>
    </g>
    <g id="xtick_8">
     <g id="line2d_8">
      <g>
       <use xlink:href="#m3ea07f5c97" x="578.618182" y="384.48" style="stroke: #000000; stroke-width: 0.8"/>
      </g>
     </g>
     <g id="text_8">
      <!-- 2019 -->
      <g transform="translate(565.893182 399.078438) scale(0.1 -0.1)">
       <defs>
        <path id="DejaVuSans-39" d="M 703 97 
L 703 672 
Q 941 559 1184 500 
Q 1428 441 1663 441 
Q 2288 441 2617 861 
Q 2947 1281 2994 2138 
Q 2813 1869 2534 1725 
Q 2256 1581 1919 1581 
Q 1219 1581 811 2004 
Q 403 2428 403 3163 
Q 403 3881 828 4315 
Q 1253 4750 1959 4750 
Q 2769 4750 3195 4129 
Q 3622 3509 3622 2328 
Q 3622 1225 3098 567 
Q 2575 -91 1691 -91 
Q 1453 -91 1209 -44 
Q 966 3 703 97 
z
M 1959 2075 
Q 2384 2075 2632 2365 
Q 2881 2656 2881 3163 
Q 2881 3666 2632 3958 
Q 2384 4250 1959 4250 
Q 1534 4250 1286 3958 
Q 1038 3666 1038 3163 
Q 1038 2656 1286 2365 
Q 1534 2075 1959 2075 
z
" transform="scale(0.015625)"/>
       </defs>
       <use xlink:href="#DejaVuSans-32"/>
       <use xlink:href="#DejaVuSans-30" x="63.623047"/>
       <use xlink:href="#DejaVuSans-31" x="127.246094"/>
       <use xlink:href="#DejaVuSans-39" x="190.869141"/>
      </g>
     </g>
    </g>
    <g id="xtick_9">
     <g id="line2d_9">
      <g>
       <use xlink:href="#m3ea07f5c97" x="644.563636" y="384.48" style="stroke: #000000; stroke-width: 0.8"/>
      </g>
     </g>
     <g id="text_9">
      <!-- 2020 -->
      <g transform="translate(631.838636 399.078438) scale(0.1 -0.1)">
       <use xlink:href="#DejaVuSans-32"/>
       <use xlink:href="#DejaVuSans-30" x="63.623047"/>
       <use xlink:href="#DejaVuSans-32" x="127.246094"/>
       <use xlink:href="#DejaVuSans-30" x="190.869141"/>
      </g>
     </g>
    </g>
    <g id="xtick_10">
     <g id="line2d_10">
      <g>
       <use xlink:href="#m3ea07f5c97" x="710.509091" y="384.48" style="stroke: #000000; stroke-width: 0.8"/>
      </g>
     </g>
     <g id="text_10">
      <!-- 2021 -->
      <g transform="translate(697.784091 399.078438) scale(0.1 -0.1)">
       <use xlink:href="#DejaVuSans-32"/>
       <use xlink:href="#DejaVuSans-30" x="63.623047"/>
       <use xlink:href="#DejaVuSans-32" x="127.246094"/>
       <use xlink:href="#DejaVuSans-31" x="190.869141"/>
      </g>
     </g>
    </g>
    <g id="xtick_11">
     <g id="line2d_11">
      <g>
       <use xlink:href="#m3ea07f5c97" x="776.454545" y="384.48" style="stroke: #000000; stroke-width: 0.8"/>
      </g>
     </g>
     <g id="text_11">
      <!-- 2022 -->
      <g transform="translate(763.729545 399.078438) scale(0.1 -0.1)">
       <use xlink:href="#DejaVuSans-32"/>
       <use xlink:href="#DejaVuSans-30" x="63.623047"/>
       <use xlink:href="#DejaVuSans-32" x="127.246094"/>
       <use xlink:href="#DejaVuSans-32" x="190.869141"/>
      </g>
     </g>
    </g>
    <g id="xtick_12">
     <g id="line2d_12">
      <g>
       <use xlink:href="#m3ea07f5c97" x="842.4" y="384.48" style="stroke: #000000; stroke-width: 0.8"/>
      </g>
     </g>
     <g id="text_12">
      <!-- 2023 -->
      <g transform="translate(829.675 399.078438) scale(0.1 -0.1)">
       <use xlink:href="#DejaVuSans-32"/>
       <use xlink:href="#DejaVuSans-30" x="63.623047"/>
       <use xlink:href="#DejaVuSans-32" x="127.246094"/>
       <use xlink:href="#DejaVuSans-33" x="190.869141"/>
      </g>
     </g>
    </g>
    <g id="text_13">
     <!-- date of most recent file in repo -->
     <g transform="translate(402.176562 412.756563) scale(0.1 -0.1)">
      <defs>
       <path id="DejaVuSans-64" d="M 2906 2969 
L 2906 4863 
L 3481 4863 
L 3481 0 
L 2906 0 
L 2906 525 
Q 2725 213 2448 61 
Q 2172 -91 1784 -91 
Q 1150 -91 751 415 
Q 353 922 353 1747 
Q 353 2572 751 3078 
Q 1150 3584 1784 3584 
Q 2172 3584 2448 3432 
Q 2725 3281 2906 2969 
z
M 947 1747 
Q 947 1113 1208 752 
Q 1469 391 1925 391 
Q 2381 391 2643 752 
Q 2906 1113 2906 1747 
Q 2906 2381 2643 2742 
Q 2381 3103 1925 3103 
Q 1469 3103 1208 2742 
Q 947 2381 947 1747 
z
" transform="scale(0.015625)"/>
       <path id="DejaVuSans-61" d="M 2194 1759 
Q 1497 1759 1228 1600 
Q 959 1441 959 1056 
Q 959 750 1161 570 
Q 1363 391 1709 391 
Q 2188 391 2477 730 
Q 2766 1069 2766 1631 
L 2766 1759 
L 2194 1759 
z
M 3341 1997 
L 3341 0 
L 2766 0 
L 2766 531 
Q 2569 213 2275 61 
Q 1981 -91 1556 -91 
Q 1019 -91 701 211 
Q 384 513 384 1019 
Q 384 1609 779 1909 
Q 1175 2209 1959 2209 
L 2766 2209 
L 2766 2266 
Q 2766 2663 2505 2880 
Q 2244 3097 1772 3097 
Q 1472 3097 1187 3025 
Q 903 2953 641 2809 
L 641 3341 
Q 956 3463 1253 3523 
Q 1550 3584 1831 3584 
Q 2591 3584 2966 3190 
Q 3341 2797 3341 1997 
z
" transform="scale(0.015625)"/>
       <path id="DejaVuSans-74" d="M 1172 4494 
L 1172 3500 
L 2356 3500 
L 2356 3053 
L 1172 3053 
L 1172 1153 
Q 1172 725 1289 603 
Q 1406 481 1766 481 
L 2356 481 
L 2356 0 
L 1766 0 
Q 1100 0 847 248 
Q 594 497 594 1153 
L 594 3053 
L 172 3053 
L 172 3500 
L 594 3500 
L 594 4494 
L 1172 4494 
z
" transform="scale(0.015625)"/>
       <path id="DejaVuSans-65" d="M 3597 1894 
L 3597 1613 
L 953 1613 
Q 991 1019 1311 708 
Q 1631 397 2203 397 
Q 2534 397 2845 478 
Q 3156 559 3463 722 
L 3463 178 
Q 3153 47 2828 -22 
Q 2503 -91 2169 -91 
Q 1331 -91 842 396 
Q 353 884 353 1716 
Q 353 2575 817 3079 
Q 1281 3584 2069 3584 
Q 2775 3584 3186 3129 
Q 3597 2675 3597 1894 
z
M 3022 2063 
Q 3016 2534 2758 2815 
Q 2500 3097 2075 3097 
Q 1594 3097 1305 2825 
Q 1016 2553 972 2059 
L 3022 2063 
z
" transform="scale(0.015625)"/>
       <path id="DejaVuSans-20" transform="scale(0.015625)"/>
       <path id="DejaVuSans-6f" d="M 1959 3097 
Q 1497 3097 1228 2736 
Q 959 2375 959 1747 
Q 959 1119 1226 758 
Q 1494 397 1959 397 
Q 2419 397 2687 759 
Q 2956 1122 2956 1747 
Q 2956 2369 2687 2733 
Q 2419 3097 1959 3097 
z
M 1959 3584 
Q 2709 3584 3137 3096 
Q 3566 2609 3566 1747 
Q 3566 888 3137 398 
Q 2709 -91 1959 -91 
Q 1206 -91 779 398 
Q 353 888 353 1747 
Q 353 2609 779 3096 
Q 1206 3584 1959 3584 
z
" transform="scale(0.015625)"/>
       <path id="DejaVuSans-66" d="M 2375 4863 
L 2375 4384 
L 1825 4384 
Q 1516 4384 1395 4259 
Q 1275 4134 1275 3809 
L 1275 3500 
L 2222 3500 
L 2222 3053 
L 1275 3053 
L 1275 0 
L 697 0 
L 697 3053 
L 147 3053 
L 147 3500 
L 697 3500 
L 697 3744 
Q 697 4328 969 4595 
Q 1241 4863 1831 4863 
L 2375 4863 
z
" transform="scale(0.015625)"/>
       <path id="DejaVuSans-6d" d="M 3328 2828 
Q 3544 3216 3844 3400 
Q 4144 3584 4550 3584 
Q 5097 3584 5394 3201 
Q 5691 2819 5691 2113 
L 5691 0 
L 5113 0 
L 5113 2094 
Q 5113 2597 4934 2840 
Q 4756 3084 4391 3084 
Q 3944 3084 3684 2787 
Q 3425 2491 3425 1978 
L 3425 0 
L 2847 0 
L 2847 2094 
Q 2847 2600 2669 2842 
Q 2491 3084 2119 3084 
Q 1678 3084 1418 2786 
Q 1159 2488 1159 1978 
L 1159 0 
L 581 0 
L 581 3500 
L 1159 3500 
L 1159 2956 
Q 1356 3278 1631 3431 
Q 1906 3584 2284 3584 
Q 2666 3584 2933 3390 
Q 3200 3197 3328 2828 
z
" transform="scale(0.015625)"/>
       <path id="DejaVuSans-73" d="M 2834 3397 
L 2834 2853 
Q 2591 2978 2328 3040 
Q 2066 3103 1784 3103 
Q 1356 3103 1142 2972 
Q 928 2841 928 2578 
Q 928 2378 1081 2264 
Q 1234 2150 1697 2047 
L 1894 2003 
Q 2506 1872 2764 1633 
Q 3022 1394 3022 966 
Q 3022 478 2636 193 
Q 2250 -91 1575 -91 
Q 1294 -91 989 -36 
Q 684 19 347 128 
L 347 722 
Q 666 556 975 473 
Q 1284 391 1588 391 
Q 1994 391 2212 530 
Q 2431 669 2431 922 
Q 2431 1156 2273 1281 
Q 2116 1406 1581 1522 
L 1381 1569 
Q 847 1681 609 1914 
Q 372 2147 372 2553 
Q 372 3047 722 3315 
Q 1072 3584 1716 3584 
Q 2034 3584 2315 3537 
Q 2597 3491 2834 3397 
z
" transform="scale(0.015625)"/>
       <path id="DejaVuSans-72" d="M 2631 2963 
Q 2534 3019 2420 3045 
Q 2306 3072 2169 3072 
Q 1681 3072 1420 2755 
Q 1159 2438 1159 1844 
L 1159 0 
L 581 0 
L 581 3500 
L 1159 3500 
L 1159 2956 
Q 1341 3275 1631 3429 
Q 1922 3584 2338 3584 
Q 2397 3584 2469 3576 
Q 2541 3569 2628 3553 
L 2631 2963 
z
" transform="scale(0.015625)"/>
       <path id="DejaVuSans-63" d="M 3122 3366 
L 3122 2828 
Q 2878 2963 2633 3030 
Q 2388 3097 2138 3097 
Q 1578 3097 1268 2742 
Q 959 2388 959 1747 
Q 959 1106 1268 751 
Q 1578 397 2138 397 
Q 2388 397 2633 464 
Q 2878 531 3122 666 
L 3122 134 
Q 2881 22 2623 -34 
Q 2366 -91 2075 -91 
Q 1284 -91 818 406 
Q 353 903 353 1747 
Q 353 2603 823 3093 
Q 1294 3584 2113 3584 
Q 2378 3584 2631 3529 
Q 2884 3475 3122 3366 
z
" transform="scale(0.015625)"/>
       <path id="DejaVuSans-6e" d="M 3513 2113 
L 3513 0 
L 2938 0 
L 2938 2094 
Q 2938 2591 2744 2837 
Q 2550 3084 2163 3084 
Q 1697 3084 1428 2787 
Q 1159 2491 1159 1978 
L 1159 0 
L 581 0 
L 581 3500 
L 1159 3500 
L 1159 2956 
Q 1366 3272 1645 3428 
Q 1925 3584 2291 3584 
Q 2894 3584 3203 3211 
Q 3513 2838 3513 2113 
z
" transform="scale(0.015625)"/>
       <path id="DejaVuSans-69" d="M 603 3500 
L 1178 3500 
L 1178 0 
L 603 0 
L 603 3500 
z
M 603 4863 
L 1178 4863 
L 1178 4134 
L 603 4134 
L 603 4863 
z
" transform="scale(0.015625)"/>
       <path id="DejaVuSans-6c" d="M 603 4863 
L 1178 4863 
L 1178 0 
L 603 0 
L 603 4863 
z
" transform="scale(0.015625)"/>
       <path id="DejaVuSans-70" d="M 1159 525 
L 1159 -1331 
L 581 -1331 
L 581 3500 
L 1159 3500 
L 1159 2969 
Q 1341 3281 1617 3432 
Q 1894 3584 2278 3584 
Q 2916 3584 3314 3078 
Q 3713 2572 3713 1747 
Q 3713 922 3314 415 
Q 2916 -91 2278 -91 
Q 1894 -91 1617 61 
Q 1341 213 1159 525 
z
M 3116 1747 
Q 3116 2381 2855 2742 
Q 2594 3103 2138 3103 
Q 1681 3103 1420 2742 
Q 1159 2381 1159 1747 
Q 1159 1113 1420 752 
Q 1681 391 2138 391 
Q 2594 391 2855 752 
Q 3116 1113 3116 1747 
z
" transform="scale(0.015625)"/>
      </defs>
      <use xlink:href="#DejaVuSans-64"/>
      <use xlink:href="#DejaVuSans-61" x="63.476562"/>
      <use xlink:href="#DejaVuSans-74" x="124.755859"/>
      <use xlink:href="#DejaVuSans-65" x="163.964844"/>
      <use xlink:href="#DejaVuSans-20" x="225.488281"/>
      <use xlink:href="#DejaVuSans-6f" x="257.275391"/>
      <use xlink:href="#DejaVuSans-66" x="318.457031"/>
      <use xlink:href="#DejaVuSans-20" x="353.662109"/>
      <use xlink:href="#DejaVuSans-6d" x="385.449219"/>
      <use xlink:href="#DejaVuSans-6f" x="482.861328"/>
      <use xlink:href="#DejaVuSans-73" x="544.042969"/>
      <use xlink:href="#DejaVuSans-74" x="596.142578"/>
      <use xlink:href="#DejaVuSans-20" x="635.351562"/>
      <use xlink:href="#DejaVuSans-72" x="667.138672"/>
      <use xlink:href="#DejaVuSans-65" x="706.001953"/>
      <use xlink:href="#DejaVuSans-63" x="767.525391"/>
      <use xlink:href="#DejaVuSans-65" x="822.505859"/>
      <use xlink:href="#DejaVuSans-6e" x="884.029297"/>
      <use xlink:href="#DejaVuSans-74" x="947.408203"/>
      <use xlink:href="#DejaVuSans-20" x="986.617188"/>
      <use xlink:href="#DejaVuSans-66" x="1018.404297"/>
      <use xlink:href="#DejaVuSans-69" x="1053.609375"/>
      <use xlink:href="#DejaVuSans-6c" x="1081.392578"/>
      <use xlink:href="#DejaVuSans-65" x="1109.175781"/>
      <use xlink:href="#DejaVuSans-20" x="1170.699219"/>
      <use xlink:href="#DejaVuSans-69" x="1202.486328"/>
      <use xlink:href="#DejaVuSans-6e" x="1230.269531"/>
      <use xlink:href="#DejaVuSans-20" x="1293.648438"/>
      <use xlink:href="#DejaVuSans-72" x="1325.435547"/>
      <use xlink:href="#DejaVuSans-65" x="1364.298828"/>
      <use xlink:href="#DejaVuSans-70" x="1425.822266"/>
      <use xlink:href="#DejaVuSans-6f" x="1489.298828"/>
     </g>
    </g>
   </g>
   <g id="matplotlib.axis_2">
    <g id="ytick_1">
     <g id="line2d_13">
      <defs>
       <path id="m7ab63fd903" d="M 0 0 
L -3.5 0 
" style="stroke: #000000; stroke-width: 0.8"/>
      </defs>
      <g>
       <use xlink:href="#m7ab63fd903" x="117" y="384.48" style="stroke: #000000; stroke-width: 0.8"/>
      </g>
     </g>
     <g id="text_14">
      <!-- 0 -->
      <g transform="translate(103.6375 388.279219) scale(0.1 -0.1)">
       <use xlink:href="#DejaVuSans-30"/>
      </g>
     </g>
    </g>
    <g id="ytick_2">
     <g id="line2d_14">
      <g>
       <use xlink:href="#m7ab63fd903" x="117" y="340.128" style="stroke: #000000; stroke-width: 0.8"/>
      </g>
     </g>
     <g id="text_15">
      <!-- 20 -->
      <g transform="translate(97.275 343.927219) scale(0.1 -0.1)">
       <use xlink:href="#DejaVuSans-32"/>
       <use xlink:href="#DejaVuSans-30" x="63.623047"/>
      </g>
     </g>
    </g>
    <g id="ytick_3">
     <g id="line2d_15">
      <g>
       <use xlink:href="#m7ab63fd903" x="117" y="295.776" style="stroke: #000000; stroke-width: 0.8"/>
      </g>
     </g>
     <g id="text_16">
      <!-- 40 -->
      <g transform="translate(97.275 299.575219) scale(0.1 -0.1)">
       <use xlink:href="#DejaVuSans-34"/>
       <use xlink:href="#DejaVuSans-30" x="63.623047"/>
      </g>
     </g>
    </g>
    <g id="ytick_4">
     <g id="line2d_16">
      <g>
       <use xlink:href="#m7ab63fd903" x="117" y="251.424" style="stroke: #000000; stroke-width: 0.8"/>
      </g>
     </g>
     <g id="text_17">
      <!-- 60 -->
      <g transform="translate(97.275 255.223219) scale(0.1 -0.1)">
       <use xlink:href="#DejaVuSans-36"/>
       <use xlink:href="#DejaVuSans-30" x="63.623047"/>
      </g>
     </g>
    </g>
    <g id="ytick_5">
     <g id="line2d_17">
      <g>
       <use xlink:href="#m7ab63fd903" x="117" y="207.072" style="stroke: #000000; stroke-width: 0.8"/>
      </g>
     </g>
     <g id="text_18">
      <!-- 80 -->
      <g transform="translate(97.275 210.871219) scale(0.1 -0.1)">
       <use xlink:href="#DejaVuSans-38"/>
       <use xlink:href="#DejaVuSans-30" x="63.623047"/>
      </g>
     </g>
    </g>
    <g id="ytick_6">
     <g id="line2d_18">
      <g>
       <use xlink:href="#m7ab63fd903" x="117" y="162.72" style="stroke: #000000; stroke-width: 0.8"/>
      </g>
     </g>
     <g id="text_19">
      <!-- 100 -->
      <g transform="translate(90.9125 166.519219) scale(0.1 -0.1)">
       <use xlink:href="#DejaVuSans-31"/>
       <use xlink:href="#DejaVuSans-30" x="63.623047"/>
       <use xlink:href="#DejaVuSans-30" x="127.246094"/>
      </g>
     </g>
    </g>
    <g id="ytick_7">
     <g id="line2d_19">
      <g>
       <use xlink:href="#m7ab63fd903" x="117" y="118.368" style="stroke: #000000; stroke-width: 0.8"/>
      </g>
     </g>
     <g id="text_20">
      <!-- 120 -->
      <g transform="translate(90.9125 122.167219) scale(0.1 -0.1)">
       <use xlink:href="#DejaVuSans-31"/>
       <use xlink:href="#DejaVuSans-32" x="63.623047"/>
       <use xlink:href="#DejaVuSans-30" x="127.246094"/>
      </g>
     </g>
    </g>
    <g id="ytick_8">
     <g id="line2d_20">
      <g>
       <use xlink:href="#m7ab63fd903" x="117" y="74.016" style="stroke: #000000; stroke-width: 0.8"/>
      </g>
     </g>
     <g id="text_21">
      <!-- 140 -->
      <g transform="translate(90.9125 77.815219) scale(0.1 -0.1)">
       <use xlink:href="#DejaVuSans-31"/>
       <use xlink:href="#DejaVuSans-34" x="63.623047"/>
       <use xlink:href="#DejaVuSans-30" x="127.246094"/>
      </g>
     </g>
    </g>
    <g id="text_22">
     <!-- number of repos matching, quarterly -->
     <g transform="translate(84.832812 310.744375) rotate(-90) scale(0.1 -0.1)">
      <defs>
       <path id="DejaVuSans-75" d="M 544 1381 
L 544 3500 
L 1119 3500 
L 1119 1403 
Q 1119 906 1312 657 
Q 1506 409 1894 409 
Q 2359 409 2629 706 
Q 2900 1003 2900 1516 
L 2900 3500 
L 3475 3500 
L 3475 0 
L 2900 0 
L 2900 538 
Q 2691 219 2414 64 
Q 2138 -91 1772 -91 
Q 1169 -91 856 284 
Q 544 659 544 1381 
z
M 1991 3584 
L 1991 3584 
z
" transform="scale(0.015625)"/>
       <path id="DejaVuSans-62" d="M 3116 1747 
Q 3116 2381 2855 2742 
Q 2594 3103 2138 3103 
Q 1681 3103 1420 2742 
Q 1159 2381 1159 1747 
Q 1159 1113 1420 752 
Q 1681 391 2138 391 
Q 2594 391 2855 752 
Q 3116 1113 3116 1747 
z
M 1159 2969 
Q 1341 3281 1617 3432 
Q 1894 3584 2278 3584 
Q 2916 3584 3314 3078 
Q 3713 2572 3713 1747 
Q 3713 922 3314 415 
Q 2916 -91 2278 -91 
Q 1894 -91 1617 61 
Q 1341 213 1159 525 
L 1159 0 
L 581 0 
L 581 4863 
L 1159 4863 
L 1159 2969 
z
" transform="scale(0.015625)"/>
       <path id="DejaVuSans-68" d="M 3513 2113 
L 3513 0 
L 2938 0 
L 2938 2094 
Q 2938 2591 2744 2837 
Q 2550 3084 2163 3084 
Q 1697 3084 1428 2787 
Q 1159 2491 1159 1978 
L 1159 0 
L 581 0 
L 581 4863 
L 1159 4863 
L 1159 2956 
Q 1366 3272 1645 3428 
Q 1925 3584 2291 3584 
Q 2894 3584 3203 3211 
Q 3513 2838 3513 2113 
z
" transform="scale(0.015625)"/>
       <path id="DejaVuSans-67" d="M 2906 1791 
Q 2906 2416 2648 2759 
Q 2391 3103 1925 3103 
Q 1463 3103 1205 2759 
Q 947 2416 947 1791 
Q 947 1169 1205 825 
Q 1463 481 1925 481 
Q 2391 481 2648 825 
Q 2906 1169 2906 1791 
z
M 3481 434 
Q 3481 -459 3084 -895 
Q 2688 -1331 1869 -1331 
Q 1566 -1331 1297 -1286 
Q 1028 -1241 775 -1147 
L 775 -588 
Q 1028 -725 1275 -790 
Q 1522 -856 1778 -856 
Q 2344 -856 2625 -561 
Q 2906 -266 2906 331 
L 2906 616 
Q 2728 306 2450 153 
Q 2172 0 1784 0 
Q 1141 0 747 490 
Q 353 981 353 1791 
Q 353 2603 747 3093 
Q 1141 3584 1784 3584 
Q 2172 3584 2450 3431 
Q 2728 3278 2906 2969 
L 2906 3500 
L 3481 3500 
L 3481 434 
z
" transform="scale(0.015625)"/>
       <path id="DejaVuSans-2c" d="M 750 794 
L 1409 794 
L 1409 256 
L 897 -744 
L 494 -744 
L 750 256 
L 750 794 
z
" transform="scale(0.015625)"/>
       <path id="DejaVuSans-71" d="M 947 1747 
Q 947 1113 1208 752 
Q 1469 391 1925 391 
Q 2381 391 2643 752 
Q 2906 1113 2906 1747 
Q 2906 2381 2643 2742 
Q 2381 3103 1925 3103 
Q 1469 3103 1208 2742 
Q 947 2381 947 1747 
z
M 2906 525 
Q 2725 213 2448 61 
Q 2172 -91 1784 -91 
Q 1150 -91 751 415 
Q 353 922 353 1747 
Q 353 2572 751 3078 
Q 1150 3584 1784 3584 
Q 2172 3584 2448 3432 
Q 2725 3281 2906 2969 
L 2906 3500 
L 3481 3500 
L 3481 -1331 
L 2906 -1331 
L 2906 525 
z
" transform="scale(0.015625)"/>
       <path id="DejaVuSans-79" d="M 2059 -325 
Q 1816 -950 1584 -1140 
Q 1353 -1331 966 -1331 
L 506 -1331 
L 506 -850 
L 844 -850 
Q 1081 -850 1212 -737 
Q 1344 -625 1503 -206 
L 1606 56 
L 191 3500 
L 800 3500 
L 1894 763 
L 2988 3500 
L 3597 3500 
L 2059 -325 
z
" transform="scale(0.015625)"/>
      </defs>
      <use xlink:href="#DejaVuSans-6e"/>
      <use xlink:href="#DejaVuSans-75" x="63.378906"/>
      <use xlink:href="#DejaVuSans-6d" x="126.757812"/>
      <use xlink:href="#DejaVuSans-62" x="224.169922"/>
      <use xlink:href="#DejaVuSans-65" x="287.646484"/>
      <use xlink:href="#DejaVuSans-72" x="349.169922"/>
      <use xlink:href="#DejaVuSans-20" x="390.283203"/>
      <use xlink:href="#DejaVuSans-6f" x="422.070312"/>
      <use xlink:href="#DejaVuSans-66" x="483.251953"/>
      <use xlink:href="#DejaVuSans-20" x="518.457031"/>
      <use xlink:href="#DejaVuSans-72" x="550.244141"/>
      <use xlink:href="#DejaVuSans-65" x="589.107422"/>
      <use xlink:href="#DejaVuSans-70" x="650.630859"/>
      <use xlink:href="#DejaVuSans-6f" x="714.107422"/>
      <use xlink:href="#DejaVuSans-73" x="775.289062"/>
      <use xlink:href="#DejaVuSans-20" x="827.388672"/>
      <use xlink:href="#DejaVuSans-6d" x="859.175781"/>
      <use xlink:href="#DejaVuSans-61" x="956.587891"/>
      <use xlink:href="#DejaVuSans-74" x="1017.867188"/>
      <use xlink:href="#DejaVuSans-63" x="1057.076172"/>
      <use xlink:href="#DejaVuSans-68" x="1112.056641"/>
      <use xlink:href="#DejaVuSans-69" x="1175.435547"/>
      <use xlink:href="#DejaVuSans-6e" x="1203.21875"/>
      <use xlink:href="#DejaVuSans-67" x="1266.597656"/>
      <use xlink:href="#DejaVuSans-2c" x="1330.074219"/>
      <use xlink:href="#DejaVuSans-20" x="1361.861328"/>
      <use xlink:href="#DejaVuSans-71" x="1393.648438"/>
      <use xlink:href="#DejaVuSans-75" x="1457.125"/>
      <use xlink:href="#DejaVuSans-61" x="1520.503906"/>
      <use xlink:href="#DejaVuSans-72" x="1581.783203"/>
      <use xlink:href="#DejaVuSans-74" x="1622.896484"/>
      <use xlink:href="#DejaVuSans-65" x="1662.105469"/>
      <use xlink:href="#DejaVuSans-72" x="1723.628906"/>
      <use xlink:href="#DejaVuSans-6c" x="1764.742188"/>
      <use xlink:href="#DejaVuSans-79" x="1792.525391"/>
     </g>
    </g>
   </g>
   <g id="line2d_21">
    <path d="M -1 382.611518 
L 1.595455 382.2624 
L 18.081818 384.48 
L 34.568182 384.48 
L 51.054545 382.2624 
L 100.513636 382.2624 
L 117 384.48 
L 149.972727 380.0448 
L 166.459091 382.2624 
L 182.945455 375.6096 
L 199.431818 375.6096 
L 215.918182 373.392 
L 232.404545 375.6096 
L 248.890909 364.5216 
L 265.377273 375.6096 
L 281.863636 362.304 
L 298.35 357.8688 
L 314.836364 346.7808 
L 331.322727 348.9984 
L 347.809091 340.128 
L 364.295455 351.216 
L 380.781818 340.128 
L 397.268182 351.216 
L 413.754545 337.9104 
L 430.240909 335.6928 
L 446.727273 311.2992 
L 463.213636 313.5168 
L 479.7 313.5168 
L 496.186364 304.6464 
L 512.672727 282.4704 
L 529.159091 300.2112 
L 545.645455 304.6464 
L 562.131818 306.864 
L 578.618182 320.1696 
L 595.104545 291.3408 
L 611.590909 311.2992 
L 628.077273 333.4752 
L 644.563636 309.0816 
L 661.05 260.2944 
L 677.536364 304.6464 
L 694.022727 300.2112 
L 710.509091 278.0352 
L 726.995455 286.9056 
L 743.481818 278.0352 
L 759.968182 300.2112 
L 776.454545 291.3408 
L 792.940909 253.6416 
L 809.427273 246.9888 
L 825.913636 242.5536 
L 842.4 193.7664 
L 858.886364 300.2112 
L 858.886364 300.2112 
" clip-path="url(#pdf64a2c236)" style="fill: none; stroke-dasharray: 1.5,2.475; stroke-dashoffset: 0; stroke: #1f77b4; stroke-width: 1.5"/>
   </g>
   <g id="line2d_22">
    <path d="M -1 382.611518 
L 1.595455 382.2624 
L 18.081818 384.48 
L 34.568182 384.48 
L 51.054545 382.2624 
L 100.513636 382.2624 
L 117 384.48 
L 149.972727 380.0448 
L 166.459091 382.2624 
L 182.945455 375.6096 
L 215.918182 375.6096 
L 232.404545 380.0448 
L 248.890909 366.7392 
L 265.377273 380.0448 
L 281.863636 366.7392 
L 298.35 360.0864 
L 314.836364 348.9984 
L 331.322727 348.9984 
L 347.809091 344.5632 
L 364.295455 355.6512 
L 380.781818 340.128 
L 397.268182 355.6512 
L 413.754545 344.5632 
L 430.240909 342.3456 
L 446.727273 320.1696 
L 463.213636 322.3872 
L 479.7 322.3872 
L 496.186364 317.952 
L 512.672727 311.2992 
L 529.159091 317.952 
L 545.645455 317.952 
L 562.131818 329.04 
L 578.618182 329.04 
L 595.104545 297.9936 
L 611.590909 324.6048 
L 628.077273 337.9104 
L 644.563636 333.4752 
L 661.05 289.1232 
L 677.536364 320.1696 
L 694.022727 311.2992 
L 710.509091 313.5168 
L 726.995455 302.4288 
L 743.481818 293.5584 
L 759.968182 320.1696 
L 776.454545 304.6464 
L 792.940909 282.4704 
L 809.427273 266.9472 
L 825.913636 271.3824 
L 842.4 224.8128 
L 858.886364 313.5168 
L 858.886364 313.5168 
" clip-path="url(#pdf64a2c236)" style="fill: none; stroke: #1f77b4; stroke-width: 1.5; stroke-linecap: square"/>
   </g>
   <g id="line2d_23">
    <path d="M -1 384.48 
L 199.431818 384.48 
L 215.918182 377.8272 
L 232.404545 380.0448 
L 248.890909 373.392 
L 265.377273 380.0448 
L 281.863636 375.6096 
L 298.35 375.6096 
L 314.836364 371.1744 
L 331.322727 380.0448 
L 347.809091 373.392 
L 364.295455 375.6096 
L 380.781818 368.9568 
L 397.268182 371.1744 
L 413.754545 375.6096 
L 430.240909 371.1744 
L 463.213636 353.4336 
L 479.7 357.8688 
L 496.186364 355.6512 
L 512.672727 342.3456 
L 529.159091 353.4336 
L 545.645455 360.0864 
L 562.131818 351.216 
L 578.618182 360.0864 
L 595.104545 357.8688 
L 611.590909 360.0864 
L 628.077273 366.7392 
L 644.563636 337.9104 
L 661.05 329.04 
L 677.536364 353.4336 
L 694.022727 357.8688 
L 710.509091 337.9104 
L 726.995455 357.8688 
L 743.481818 337.9104 
L 759.968182 348.9984 
L 776.454545 353.4336 
L 792.940909 331.2576 
L 809.427273 337.9104 
L 825.913636 313.5168 
L 842.4 302.4288 
L 858.886364 333.4752 
L 858.886364 333.4752 
" clip-path="url(#pdf64a2c236)" style="fill: none; stroke-dasharray: 5.55,2.4; stroke-dashoffset: 0; stroke: #1f77b4; stroke-width: 1.5"/>
   </g>
   <g id="line2d_24">
    <path d="M -1 382.611518 
L 1.595455 382.2624 
L 18.081818 384.48 
L 166.459091 384.48 
L 215.918182 377.8272 
L 232.404545 382.2624 
L 248.890909 375.6096 
L 265.377273 382.2624 
L 281.863636 377.8272 
L 298.35 377.8272 
L 314.836364 371.1744 
L 347.809091 371.1744 
L 364.295455 368.9568 
L 380.781818 355.6512 
L 397.268182 351.216 
L 413.754545 362.304 
L 430.240909 360.0864 
L 446.727273 322.3872 
L 463.213636 293.5584 
L 479.7 311.2992 
L 496.186364 278.0352 
L 512.672727 275.8176 
L 529.159091 229.248 
L 545.645455 258.0768 
L 562.131818 235.9008 
L 578.618182 211.5072 
L 595.104545 235.9008 
L 611.590909 242.5536 
L 628.077273 262.512 
L 644.563636 176.0256 
L 661.05 149.4144 
L 677.536364 184.896 
L 694.022727 195.984 
L 710.509091 189.3312 
L 726.995455 144.9792 
L 743.481818 198.2016 
L 759.968182 195.984 
L 776.454545 189.3312 
L 792.940909 164.9376 
L 809.427273 209.2896 
L 825.913636 107.28 
L 842.4 20.7936 
L 858.886364 220.3776 
L 858.886364 220.3776 
" clip-path="url(#pdf64a2c236)" style="fill: none; stroke: #d62728; stroke-width: 1.5; stroke-linecap: square"/>
   </g>
   <g id="line2d_25">
    <path d="M -1 382.611518 
L 1.595455 382.2624 
L 18.081818 384.48 
L 84.027273 384.48 
L 100.513636 382.2624 
L 117 384.48 
L 166.459091 384.48 
L 182.945455 382.2624 
L 199.431818 382.2624 
L 215.918182 380.0448 
L 232.404545 384.48 
L 248.890909 380.0448 
L 265.377273 384.48 
L 281.863636 380.0448 
L 298.35 382.2624 
L 314.836364 375.6096 
L 364.295455 375.6096 
L 380.781818 371.1744 
L 397.268182 362.304 
L 413.754545 368.9568 
L 430.240909 371.1744 
L 446.727273 335.6928 
L 479.7 340.128 
L 496.186364 324.6048 
L 512.672727 320.1696 
L 529.159091 258.0768 
L 545.645455 317.952 
L 562.131818 302.4288 
L 578.618182 282.4704 
L 595.104545 300.2112 
L 611.590909 302.4288 
L 628.077273 311.2992 
L 644.563636 242.5536 
L 661.05 231.4656 
L 677.536364 260.2944 
L 694.022727 253.6416 
L 710.509091 264.7296 
L 726.995455 238.1184 
L 743.481818 295.776 
L 759.968182 280.2528 
L 776.454545 260.2944 
L 792.940909 238.1184 
L 809.427273 266.9472 
L 825.913636 218.16 
L 842.4 153.8496 
L 858.886364 271.3824 
L 858.886364 271.3824 
" clip-path="url(#pdf64a2c236)" style="fill: none; stroke-dasharray: 5.55,2.4; stroke-dashoffset: 0; stroke: #d62728; stroke-width: 1.5"/>
   </g>
   <g id="line2d_26">
    <path d="M -1 384.48 
L 298.35 384.48 
L 314.836364 382.2624 
L 331.322727 384.48 
L 347.809091 382.2624 
L 364.295455 384.48 
L 380.781818 380.0448 
L 413.754545 375.6096 
L 430.240909 377.8272 
L 446.727273 366.7392 
L 463.213636 362.304 
L 479.7 360.0864 
L 496.186364 346.7808 
L 512.672727 360.0864 
L 529.159091 324.6048 
L 545.645455 344.5632 
L 578.618182 313.5168 
L 595.104545 335.6928 
L 611.590909 340.128 
L 644.563636 322.3872 
L 661.05 300.2112 
L 694.022727 313.5168 
L 710.509091 293.5584 
L 726.995455 262.512 
L 743.481818 300.2112 
L 759.968182 282.4704 
L 776.454545 289.1232 
L 792.940909 275.8176 
L 809.427273 289.1232 
L 825.913636 271.3824 
L 842.4 222.5952 
L 858.886364 300.2112 
L 858.886364 300.2112 
" clip-path="url(#pdf64a2c236)" style="fill: none; stroke-dasharray: 9.6,2.4,1.5,2.4; stroke-dashoffset: 0; stroke: #d62728; stroke-width: 1.5"/>
   </g>
   <g id="line2d_27">
    <path d="M -1 384.48 
L 397.268182 384.48 
L 413.754545 382.2624 
L 430.240909 382.2624 
L 446.727273 375.6096 
L 479.7 371.1744 
L 496.186364 362.304 
L 512.672727 364.5216 
L 529.159091 357.8688 
L 545.645455 362.304 
L 562.131818 368.9568 
L 578.618182 346.7808 
L 595.104545 375.6096 
L 611.590909 371.1744 
L 628.077273 357.8688 
L 644.563636 351.216 
L 661.05 362.304 
L 677.536364 353.4336 
L 694.022727 353.4336 
L 710.509091 371.1744 
L 743.481818 357.8688 
L 759.968182 360.0864 
L 776.454545 373.392 
L 792.940909 371.1744 
L 809.427273 360.0864 
L 825.913636 362.304 
L 842.4 342.3456 
L 858.886364 373.392 
L 858.886364 373.392 
" clip-path="url(#pdf64a2c236)" style="fill: none; stroke-dasharray: 1.5,2.475; stroke-dashoffset: 0; stroke: #d62728; stroke-width: 1.5"/>
   </g>
   <g id="line2d_28">
    <path d="M -1 384.48 
L 545.645455 384.48 
L 562.131818 382.2624 
L 578.618182 384.48 
L 595.104545 380.0448 
L 611.590909 377.8272 
L 628.077273 377.8272 
L 644.563636 375.6096 
L 661.05 377.8272 
L 677.536364 371.1744 
L 694.022727 382.2624 
L 710.509091 375.6096 
L 726.995455 375.6096 
L 743.481818 371.1744 
L 759.968182 375.6096 
L 776.454545 375.6096 
L 792.940909 371.1744 
L 809.427273 368.9568 
L 825.913636 351.216 
L 842.4 344.5632 
L 858.886364 353.4336 
L 858.886364 353.4336 
" clip-path="url(#pdf64a2c236)" style="fill: none; stroke: #ff7f0e; stroke-width: 1.5; stroke-linecap: square"/>
   </g>
   <g id="line2d_29">
    <path d="M -1 384.48 
L 595.104545 384.48 
L 611.590909 382.2624 
L 628.077273 382.2624 
L 644.563636 384.48 
L 661.05 382.2624 
L 677.536364 375.6096 
L 694.022727 384.48 
L 710.509091 380.0448 
L 726.995455 382.2624 
L 743.481818 377.8272 
L 759.968182 375.6096 
L 776.454545 384.48 
L 792.940909 371.1744 
L 809.427273 375.6096 
L 825.913636 368.9568 
L 842.4 371.1744 
L 858.886364 368.9568 
L 858.886364 368.9568 
" clip-path="url(#pdf64a2c236)" style="fill: none; stroke-dasharray: 5.55,2.4; stroke-dashoffset: 0; stroke: #9467bd; stroke-width: 1.5"/>
   </g>
   <g id="line2d_30">
    <path d="M 446.727273 384.48 
L 446.727273 51.84 
" clip-path="url(#pdf64a2c236)" style="fill: none; stroke-dasharray: 5.55,2.4; stroke-dashoffset: 0; stroke: #808080; stroke-width: 1.5"/>
   </g>
   <g id="patch_3">
    <path d="M 117 384.48 
L 117 51.84 
" style="fill: none; stroke: #000000; stroke-width: 0.8; stroke-linejoin: miter; stroke-linecap: square"/>
   </g>
   <g id="patch_4">
    <path d="M 842.4 384.48 
L 842.4 51.84 
" style="fill: none; stroke: #000000; stroke-width: 0.8; stroke-linejoin: miter; stroke-linecap: square"/>
   </g>
   <g id="patch_5">
    <path d="M 117 384.48 
L 842.4 384.48 
" style="fill: none; stroke: #000000; stroke-width: 0.8; stroke-linejoin: miter; stroke-linecap: square"/>
   </g>
   <g id="patch_6">
    <path d="M 117 51.84 
L 842.4 51.84 
" style="fill: none; stroke: #000000; stroke-width: 0.8; stroke-linejoin: miter; stroke-linecap: square"/>
   </g>
   <g id="text_23">
    <!-- GitHub archive started collecting data -->
    <g style="fill: #808080" transform="translate(444.647585 280.191312) rotate(-90) scale(0.1 -0.1)">
     <defs>
      <path id="DejaVuSans-47" d="M 3809 666 
L 3809 1919 
L 2778 1919 
L 2778 2438 
L 4434 2438 
L 4434 434 
Q 4069 175 3628 42 
Q 3188 -91 2688 -91 
Q 1594 -91 976 548 
Q 359 1188 359 2328 
Q 359 3472 976 4111 
Q 1594 4750 2688 4750 
Q 3144 4750 3555 4637 
Q 3966 4525 4313 4306 
L 4313 3634 
Q 3963 3931 3569 4081 
Q 3175 4231 2741 4231 
Q 1884 4231 1454 3753 
Q 1025 3275 1025 2328 
Q 1025 1384 1454 906 
Q 1884 428 2741 428 
Q 3075 428 3337 486 
Q 3600 544 3809 666 
z
" transform="scale(0.015625)"/>
      <path id="DejaVuSans-48" d="M 628 4666 
L 1259 4666 
L 1259 2753 
L 3553 2753 
L 3553 4666 
L 4184 4666 
L 4184 0 
L 3553 0 
L 3553 2222 
L 1259 2222 
L 1259 0 
L 628 0 
L 628 4666 
z
" transform="scale(0.015625)"/>
      <path id="DejaVuSans-76" d="M 191 3500 
L 800 3500 
L 1894 563 
L 2988 3500 
L 3597 3500 
L 2284 0 
L 1503 0 
L 191 3500 
z
" transform="scale(0.015625)"/>
     </defs>
     <use xlink:href="#DejaVuSans-47"/>
     <use xlink:href="#DejaVuSans-69" x="77.490234"/>
     <use xlink:href="#DejaVuSans-74" x="105.273438"/>
     <use xlink:href="#DejaVuSans-48" x="144.482422"/>
     <use xlink:href="#DejaVuSans-75" x="219.677734"/>
     <use xlink:href="#DejaVuSans-62" x="283.056641"/>
     <use xlink:href="#DejaVuSans-20" x="346.533203"/>
     <use xlink:href="#DejaVuSans-61" x="378.320312"/>
     <use xlink:href="#DejaVuSans-72" x="439.599609"/>
     <use xlink:href="#DejaVuSans-63" x="478.462891"/>
     <use xlink:href="#DejaVuSans-68" x="533.443359"/>
     <use xlink:href="#DejaVuSans-69" x="596.822266"/>
     <use xlink:href="#DejaVuSans-76" x="624.605469"/>
     <use xlink:href="#DejaVuSans-65" x="683.785156"/>
     <use xlink:href="#DejaVuSans-20" x="745.308594"/>
     <use xlink:href="#DejaVuSans-73" x="777.095703"/>
     <use xlink:href="#DejaVuSans-74" x="829.195312"/>
     <use xlink:href="#DejaVuSans-61" x="868.404297"/>
     <use xlink:href="#DejaVuSans-72" x="929.683594"/>
     <use xlink:href="#DejaVuSans-74" x="970.796875"/>
     <use xlink:href="#DejaVuSans-65" x="1010.005859"/>
     <use xlink:href="#DejaVuSans-64" x="1071.529297"/>
     <use xlink:href="#DejaVuSans-20" x="1135.005859"/>
     <use xlink:href="#DejaVuSans-63" x="1166.792969"/>
     <use xlink:href="#DejaVuSans-6f" x="1221.773438"/>
     <use xlink:href="#DejaVuSans-6c" x="1282.955078"/>
     <use xlink:href="#DejaVuSans-6c" x="1310.738281"/>
     <use xlink:href="#DejaVuSans-65" x="1338.521484"/>
     <use xlink:href="#DejaVuSans-63" x="1400.044922"/>
     <use xlink:href="#DejaVuSans-74" x="1455.025391"/>
     <use xlink:href="#DejaVuSans-69" x="1494.234375"/>
     <use xlink:href="#DejaVuSans-6e" x="1522.017578"/>
     <use xlink:href="#DejaVuSans-67" x="1585.396484"/>
     <use xlink:href="#DejaVuSans-20" x="1648.873047"/>
     <use xlink:href="#DejaVuSans-64" x="1680.660156"/>
     <use xlink:href="#DejaVuSans-61" x="1744.136719"/>
     <use xlink:href="#DejaVuSans-74" x="1805.416016"/>
     <use xlink:href="#DejaVuSans-61" x="1844.625"/>
    </g>
   </g>
   <g id="text_24">
    <!-- "particle physicists" (identified by ROOT repo interactions) -->
    <g transform="translate(303.915 45.84) scale(0.12 -0.12)">
     <defs>
      <path id="DejaVuSans-22" d="M 1147 4666 
L 1147 2931 
L 616 2931 
L 616 4666 
L 1147 4666 
z
M 2328 4666 
L 2328 2931 
L 1797 2931 
L 1797 4666 
L 2328 4666 
z
" transform="scale(0.015625)"/>
      <path id="DejaVuSans-28" d="M 1984 4856 
Q 1566 4138 1362 3434 
Q 1159 2731 1159 2009 
Q 1159 1288 1364 580 
Q 1569 -128 1984 -844 
L 1484 -844 
Q 1016 -109 783 600 
Q 550 1309 550 2009 
Q 550 2706 781 3412 
Q 1013 4119 1484 4856 
L 1984 4856 
z
" transform="scale(0.015625)"/>
      <path id="DejaVuSans-52" d="M 2841 2188 
Q 3044 2119 3236 1894 
Q 3428 1669 3622 1275 
L 4263 0 
L 3584 0 
L 2988 1197 
Q 2756 1666 2539 1819 
Q 2322 1972 1947 1972 
L 1259 1972 
L 1259 0 
L 628 0 
L 628 4666 
L 2053 4666 
Q 2853 4666 3247 4331 
Q 3641 3997 3641 3322 
Q 3641 2881 3436 2590 
Q 3231 2300 2841 2188 
z
M 1259 4147 
L 1259 2491 
L 2053 2491 
Q 2509 2491 2742 2702 
Q 2975 2913 2975 3322 
Q 2975 3731 2742 3939 
Q 2509 4147 2053 4147 
L 1259 4147 
z
" transform="scale(0.015625)"/>
      <path id="DejaVuSans-4f" d="M 2522 4238 
Q 1834 4238 1429 3725 
Q 1025 3213 1025 2328 
Q 1025 1447 1429 934 
Q 1834 422 2522 422 
Q 3209 422 3611 934 
Q 4013 1447 4013 2328 
Q 4013 3213 3611 3725 
Q 3209 4238 2522 4238 
z
M 2522 4750 
Q 3503 4750 4090 4092 
Q 4678 3434 4678 2328 
Q 4678 1225 4090 567 
Q 3503 -91 2522 -91 
Q 1538 -91 948 565 
Q 359 1222 359 2328 
Q 359 3434 948 4092 
Q 1538 4750 2522 4750 
z
" transform="scale(0.015625)"/>
      <path id="DejaVuSans-54" d="M -19 4666 
L 3928 4666 
L 3928 4134 
L 2272 4134 
L 2272 0 
L 1638 0 
L 1638 4134 
L -19 4134 
L -19 4666 
z
" transform="scale(0.015625)"/>
      <path id="DejaVuSans-29" d="M 513 4856 
L 1013 4856 
Q 1481 4119 1714 3412 
Q 1947 2706 1947 2009 
Q 1947 1309 1714 600 
Q 1481 -109 1013 -844 
L 513 -844 
Q 928 -128 1133 580 
Q 1338 1288 1338 2009 
Q 1338 2731 1133 3434 
Q 928 4138 513 4856 
z
" transform="scale(0.015625)"/>
     </defs>
     <use xlink:href="#DejaVuSans-22"/>
     <use xlink:href="#DejaVuSans-70" x="45.996094"/>
     <use xlink:href="#DejaVuSans-61" x="109.472656"/>
     <use xlink:href="#DejaVuSans-72" x="170.751953"/>
     <use xlink:href="#DejaVuSans-74" x="211.865234"/>
     <use xlink:href="#DejaVuSans-69" x="251.074219"/>
     <use xlink:href="#DejaVuSans-63" x="278.857422"/>
     <use xlink:href="#DejaVuSans-6c" x="333.837891"/>
     <use xlink:href="#DejaVuSans-65" x="361.621094"/>
     <use xlink:href="#DejaVuSans-20" x="423.144531"/>
     <use xlink:href="#DejaVuSans-70" x="454.931641"/>
     <use xlink:href="#DejaVuSans-68" x="518.408203"/>
     <use xlink:href="#DejaVuSans-79" x="581.787109"/>
     <use xlink:href="#DejaVuSans-73" x="640.966797"/>
     <use xlink:href="#DejaVuSans-69" x="693.066406"/>
     <use xlink:href="#DejaVuSans-63" x="720.849609"/>
     <use xlink:href="#DejaVuSans-69" x="775.830078"/>
     <use xlink:href="#DejaVuSans-73" x="803.613281"/>
     <use xlink:href="#DejaVuSans-74" x="855.712891"/>
     <use xlink:href="#DejaVuSans-73" x="894.921875"/>
     <use xlink:href="#DejaVuSans-22" x="947.021484"/>
     <use xlink:href="#DejaVuSans-20" x="993.017578"/>
     <use xlink:href="#DejaVuSans-28" x="1024.804688"/>
     <use xlink:href="#DejaVuSans-69" x="1063.818359"/>
     <use xlink:href="#DejaVuSans-64" x="1091.601562"/>
     <use xlink:href="#DejaVuSans-65" x="1155.078125"/>
     <use xlink:href="#DejaVuSans-6e" x="1216.601562"/>
     <use xlink:href="#DejaVuSans-74" x="1279.980469"/>
     <use xlink:href="#DejaVuSans-69" x="1319.189453"/>
     <use xlink:href="#DejaVuSans-66" x="1346.972656"/>
     <use xlink:href="#DejaVuSans-69" x="1382.177734"/>
     <use xlink:href="#DejaVuSans-65" x="1409.960938"/>
     <use xlink:href="#DejaVuSans-64" x="1471.484375"/>
     <use xlink:href="#DejaVuSans-20" x="1534.960938"/>
     <use xlink:href="#DejaVuSans-62" x="1566.748047"/>
     <use xlink:href="#DejaVuSans-79" x="1630.224609"/>
     <use xlink:href="#DejaVuSans-20" x="1689.404297"/>
     <use xlink:href="#DejaVuSans-52" x="1721.191406"/>
     <use xlink:href="#DejaVuSans-4f" x="1790.673828"/>
     <use xlink:href="#DejaVuSans-4f" x="1869.384766"/>
     <use xlink:href="#DejaVuSans-54" x="1948.095703"/>
     <use xlink:href="#DejaVuSans-20" x="2009.179688"/>
     <use xlink:href="#DejaVuSans-72" x="2040.966797"/>
     <use xlink:href="#DejaVuSans-65" x="2079.830078"/>
     <use xlink:href="#DejaVuSans-70" x="2141.353516"/>
     <use xlink:href="#DejaVuSans-6f" x="2204.830078"/>
     <use xlink:href="#DejaVuSans-20" x="2266.011719"/>
     <use xlink:href="#DejaVuSans-69" x="2297.798828"/>
     <use xlink:href="#DejaVuSans-6e" x="2325.582031"/>
     <use xlink:href="#DejaVuSans-74" x="2388.960938"/>
     <use xlink:href="#DejaVuSans-65" x="2428.169922"/>
     <use xlink:href="#DejaVuSans-72" x="2489.693359"/>
     <use xlink:href="#DejaVuSans-61" x="2530.806641"/>
     <use xlink:href="#DejaVuSans-63" x="2592.085938"/>
     <use xlink:href="#DejaVuSans-74" x="2647.066406"/>
     <use xlink:href="#DejaVuSans-69" x="2686.275391"/>
     <use xlink:href="#DejaVuSans-6f" x="2714.058594"/>
     <use xlink:href="#DejaVuSans-6e" x="2775.240234"/>
     <use xlink:href="#DejaVuSans-73" x="2838.619141"/>
     <use xlink:href="#DejaVuSans-29" x="2890.71875"/>
    </g>
   </g>
   <g id="legend_1">
    <g id="patch_7">
     <path d="M 124 191.943125 
L 231.1125 191.943125 
Q 233.1125 191.943125 233.1125 189.943125 
L 233.1125 58.84 
Q 233.1125 56.84 231.1125 56.84 
L 124 56.84 
Q 122 56.84 122 58.84 
L 122 189.943125 
Q 122 191.943125 124 191.943125 
z
" style="fill: #ffffff; stroke: #cccccc; stroke-linejoin: miter"/>
    </g>
    <g id="line2d_31">
     <path d="M 126 64.938437 
L 136 64.938437 
L 146 64.938437 
" style="fill: none; stroke-dasharray: 1.5,2.475; stroke-dashoffset: 0; stroke: #1f77b4; stroke-width: 1.5"/>
    </g>
    <g id="text_25">
     <!-- ROOT (any) -->
     <g transform="translate(154 68.438437) scale(0.1 -0.1)">
      <use xlink:href="#DejaVuSans-52"/>
      <use xlink:href="#DejaVuSans-4f" x="69.482422"/>
      <use xlink:href="#DejaVuSans-4f" x="148.193359"/>
      <use xlink:href="#DejaVuSans-54" x="226.904297"/>
      <use xlink:href="#DejaVuSans-20" x="287.988281"/>
      <use xlink:href="#DejaVuSans-28" x="319.775391"/>
      <use xlink:href="#DejaVuSans-61" x="358.789062"/>
      <use xlink:href="#DejaVuSans-6e" x="420.068359"/>
      <use xlink:href="#DejaVuSans-79" x="483.447266"/>
      <use xlink:href="#DejaVuSans-29" x="542.626953"/>
     </g>
    </g>
    <g id="line2d_32">
     <path d="M 126 79.616562 
L 136 79.616562 
L 146 79.616562 
" style="fill: none; stroke: #1f77b4; stroke-width: 1.5; stroke-linecap: square"/>
    </g>
    <g id="text_26">
     <!-- ROOT (C++) -->
     <g transform="translate(154 83.116562) scale(0.1 -0.1)">
      <defs>
       <path id="DejaVuSans-43" d="M 4122 4306 
L 4122 3641 
Q 3803 3938 3442 4084 
Q 3081 4231 2675 4231 
Q 1875 4231 1450 3742 
Q 1025 3253 1025 2328 
Q 1025 1406 1450 917 
Q 1875 428 2675 428 
Q 3081 428 3442 575 
Q 3803 722 4122 1019 
L 4122 359 
Q 3791 134 3420 21 
Q 3050 -91 2638 -91 
Q 1578 -91 968 557 
Q 359 1206 359 2328 
Q 359 3453 968 4101 
Q 1578 4750 2638 4750 
Q 3056 4750 3426 4639 
Q 3797 4528 4122 4306 
z
" transform="scale(0.015625)"/>
       <path id="DejaVuSans-2b" d="M 2944 4013 
L 2944 2272 
L 4684 2272 
L 4684 1741 
L 2944 1741 
L 2944 0 
L 2419 0 
L 2419 1741 
L 678 1741 
L 678 2272 
L 2419 2272 
L 2419 4013 
L 2944 4013 
z
" transform="scale(0.015625)"/>
      </defs>
      <use xlink:href="#DejaVuSans-52"/>
      <use xlink:href="#DejaVuSans-4f" x="69.482422"/>
      <use xlink:href="#DejaVuSans-4f" x="148.193359"/>
      <use xlink:href="#DejaVuSans-54" x="226.904297"/>
      <use xlink:href="#DejaVuSans-20" x="287.988281"/>
      <use xlink:href="#DejaVuSans-28" x="319.775391"/>
      <use xlink:href="#DejaVuSans-43" x="358.789062"/>
      <use xlink:href="#DejaVuSans-2b" x="428.613281"/>
      <use xlink:href="#DejaVuSans-2b" x="512.402344"/>
      <use xlink:href="#DejaVuSans-29" x="596.191406"/>
     </g>
    </g>
    <g id="line2d_33">
     <path d="M 126 94.294687 
L 136 94.294687 
L 146 94.294687 
" style="fill: none; stroke-dasharray: 5.55,2.4; stroke-dashoffset: 0; stroke: #1f77b4; stroke-width: 1.5"/>
    </g>
    <g id="text_27">
     <!-- ROOT (Python) -->
     <g transform="translate(154 97.794687) scale(0.1 -0.1)">
      <defs>
       <path id="DejaVuSans-50" d="M 1259 4147 
L 1259 2394 
L 2053 2394 
Q 2494 2394 2734 2622 
Q 2975 2850 2975 3272 
Q 2975 3691 2734 3919 
Q 2494 4147 2053 4147 
L 1259 4147 
z
M 628 4666 
L 2053 4666 
Q 2838 4666 3239 4311 
Q 3641 3956 3641 3272 
Q 3641 2581 3239 2228 
Q 2838 1875 2053 1875 
L 1259 1875 
L 1259 0 
L 628 0 
L 628 4666 
z
" transform="scale(0.015625)"/>
      </defs>
      <use xlink:href="#DejaVuSans-52"/>
      <use xlink:href="#DejaVuSans-4f" x="69.482422"/>
      <use xlink:href="#DejaVuSans-4f" x="148.193359"/>
      <use xlink:href="#DejaVuSans-54" x="226.904297"/>
      <use xlink:href="#DejaVuSans-20" x="287.988281"/>
      <use xlink:href="#DejaVuSans-28" x="319.775391"/>
      <use xlink:href="#DejaVuSans-50" x="358.789062"/>
      <use xlink:href="#DejaVuSans-79" x="419.091797"/>
      <use xlink:href="#DejaVuSans-74" x="478.271484"/>
      <use xlink:href="#DejaVuSans-68" x="517.480469"/>
      <use xlink:href="#DejaVuSans-6f" x="580.859375"/>
      <use xlink:href="#DejaVuSans-6e" x="642.041016"/>
      <use xlink:href="#DejaVuSans-29" x="705.419922"/>
     </g>
    </g>
    <g id="line2d_34">
     <path d="M 126 108.972812 
L 136 108.972812 
L 146 108.972812 
" style="fill: none; stroke: #d62728; stroke-width: 1.5; stroke-linecap: square"/>
    </g>
    <g id="text_28">
     <!-- NumPy -->
     <g transform="translate(154 112.472812) scale(0.1 -0.1)">
      <defs>
       <path id="DejaVuSans-4e" d="M 628 4666 
L 1478 4666 
L 3547 763 
L 3547 4666 
L 4159 4666 
L 4159 0 
L 3309 0 
L 1241 3903 
L 1241 0 
L 628 0 
L 628 4666 
z
" transform="scale(0.015625)"/>
      </defs>
      <use xlink:href="#DejaVuSans-4e"/>
      <use xlink:href="#DejaVuSans-75" x="74.804688"/>
      <use xlink:href="#DejaVuSans-6d" x="138.183594"/>
      <use xlink:href="#DejaVuSans-50" x="235.595703"/>
      <use xlink:href="#DejaVuSans-79" x="295.898438"/>
     </g>
    </g>
    <g id="line2d_35">
     <path d="M 126 123.650937 
L 136 123.650937 
L 146 123.650937 
" style="fill: none; stroke-dasharray: 5.55,2.4; stroke-dashoffset: 0; stroke: #d62728; stroke-width: 1.5"/>
    </g>
    <g id="text_29">
     <!-- Matplotlib -->
     <g transform="translate(154 127.150937) scale(0.1 -0.1)">
      <defs>
       <path id="DejaVuSans-4d" d="M 628 4666 
L 1569 4666 
L 2759 1491 
L 3956 4666 
L 4897 4666 
L 4897 0 
L 4281 0 
L 4281 4097 
L 3078 897 
L 2444 897 
L 1241 4097 
L 1241 0 
L 628 0 
L 628 4666 
z
" transform="scale(0.015625)"/>
      </defs>
      <use xlink:href="#DejaVuSans-4d"/>
      <use xlink:href="#DejaVuSans-61" x="86.279297"/>
      <use xlink:href="#DejaVuSans-74" x="147.558594"/>
      <use xlink:href="#DejaVuSans-70" x="186.767578"/>
      <use xlink:href="#DejaVuSans-6c" x="250.244141"/>
      <use xlink:href="#DejaVuSans-6f" x="278.027344"/>
      <use xlink:href="#DejaVuSans-74" x="339.208984"/>
      <use xlink:href="#DejaVuSans-6c" x="378.417969"/>
      <use xlink:href="#DejaVuSans-69" x="406.201172"/>
      <use xlink:href="#DejaVuSans-62" x="433.984375"/>
     </g>
    </g>
    <g id="line2d_36">
     <path d="M 126 138.329062 
L 136 138.329062 
L 146 138.329062 
" style="fill: none; stroke-dasharray: 9.6,2.4,1.5,2.4; stroke-dashoffset: 0; stroke: #d62728; stroke-width: 1.5"/>
    </g>
    <g id="text_30">
     <!-- Pandas -->
     <g transform="translate(154 141.829062) scale(0.1 -0.1)">
      <use xlink:href="#DejaVuSans-50"/>
      <use xlink:href="#DejaVuSans-61" x="55.802734"/>
      <use xlink:href="#DejaVuSans-6e" x="117.082031"/>
      <use xlink:href="#DejaVuSans-64" x="180.460938"/>
      <use xlink:href="#DejaVuSans-61" x="243.9375"/>
      <use xlink:href="#DejaVuSans-73" x="305.216797"/>
     </g>
    </g>
    <g id="line2d_37">
     <path d="M 126 153.007187 
L 136 153.007187 
L 146 153.007187 
" style="fill: none; stroke-dasharray: 1.5,2.475; stroke-dashoffset: 0; stroke: #d62728; stroke-width: 1.5"/>
    </g>
    <g id="text_31">
     <!-- TensorFlow -->
     <g transform="translate(154 156.507187) scale(0.1 -0.1)">
      <defs>
       <path id="DejaVuSans-46" d="M 628 4666 
L 3309 4666 
L 3309 4134 
L 1259 4134 
L 1259 2759 
L 3109 2759 
L 3109 2228 
L 1259 2228 
L 1259 0 
L 628 0 
L 628 4666 
z
" transform="scale(0.015625)"/>
       <path id="DejaVuSans-77" d="M 269 3500 
L 844 3500 
L 1563 769 
L 2278 3500 
L 2956 3500 
L 3675 769 
L 4391 3500 
L 4966 3500 
L 4050 0 
L 3372 0 
L 2619 2869 
L 1863 0 
L 1184 0 
L 269 3500 
z
" transform="scale(0.015625)"/>
      </defs>
      <use xlink:href="#DejaVuSans-54"/>
      <use xlink:href="#DejaVuSans-65" x="44.083984"/>
      <use xlink:href="#DejaVuSans-6e" x="105.607422"/>
      <use xlink:href="#DejaVuSans-73" x="168.986328"/>
      <use xlink:href="#DejaVuSans-6f" x="221.085938"/>
      <use xlink:href="#DejaVuSans-72" x="282.267578"/>
      <use xlink:href="#DejaVuSans-46" x="323.380859"/>
      <use xlink:href="#DejaVuSans-6c" x="380.900391"/>
      <use xlink:href="#DejaVuSans-6f" x="408.683594"/>
      <use xlink:href="#DejaVuSans-77" x="469.865234"/>
     </g>
    </g>
    <g id="line2d_38">
     <path d="M 126 167.685312 
L 136 167.685312 
L 146 167.685312 
" style="fill: none; stroke: #ff7f0e; stroke-width: 1.5; stroke-linecap: square"/>
    </g>
    <g id="text_32">
     <!-- Uproot -->
     <g transform="translate(154 171.185312) scale(0.1 -0.1)">
      <defs>
       <path id="DejaVuSans-55" d="M 556 4666 
L 1191 4666 
L 1191 1831 
Q 1191 1081 1462 751 
Q 1734 422 2344 422 
Q 2950 422 3222 751 
Q 3494 1081 3494 1831 
L 3494 4666 
L 4128 4666 
L 4128 1753 
Q 4128 841 3676 375 
Q 3225 -91 2344 -91 
Q 1459 -91 1007 375 
Q 556 841 556 1753 
L 556 4666 
z
" transform="scale(0.015625)"/>
      </defs>
      <use xlink:href="#DejaVuSans-55"/>
      <use xlink:href="#DejaVuSans-70" x="73.193359"/>
      <use xlink:href="#DejaVuSans-72" x="136.669922"/>
      <use xlink:href="#DejaVuSans-6f" x="175.533203"/>
      <use xlink:href="#DejaVuSans-6f" x="236.714844"/>
      <use xlink:href="#DejaVuSans-74" x="297.896484"/>
     </g>
    </g>
    <g id="line2d_39">
     <path d="M 126 182.363437 
L 136 182.363437 
L 146 182.363437 
" style="fill: none; stroke-dasharray: 5.55,2.4; stroke-dashoffset: 0; stroke: #9467bd; stroke-width: 1.5"/>
    </g>
    <g id="text_33">
     <!-- Awkward Array -->
     <g transform="translate(154 185.863437) scale(0.1 -0.1)">
      <defs>
       <path id="DejaVuSans-41" d="M 2188 4044 
L 1331 1722 
L 3047 1722 
L 2188 4044 
z
M 1831 4666 
L 2547 4666 
L 4325 0 
L 3669 0 
L 3244 1197 
L 1141 1197 
L 716 0 
L 50 0 
L 1831 4666 
z
" transform="scale(0.015625)"/>
       <path id="DejaVuSans-6b" d="M 581 4863 
L 1159 4863 
L 1159 1991 
L 2875 3500 
L 3609 3500 
L 1753 1863 
L 3688 0 
L 2938 0 
L 1159 1709 
L 1159 0 
L 581 0 
L 581 4863 
z
" transform="scale(0.015625)"/>
      </defs>
      <use xlink:href="#DejaVuSans-41"/>
      <use xlink:href="#DejaVuSans-77" x="64.408203"/>
      <use xlink:href="#DejaVuSans-6b" x="146.195312"/>
      <use xlink:href="#DejaVuSans-77" x="204.105469"/>
      <use xlink:href="#DejaVuSans-61" x="285.892578"/>
      <use xlink:href="#DejaVuSans-72" x="347.171875"/>
      <use xlink:href="#DejaVuSans-64" x="386.535156"/>
      <use xlink:href="#DejaVuSans-20" x="450.011719"/>
      <use xlink:href="#DejaVuSans-41" x="481.798828"/>
      <use xlink:href="#DejaVuSans-72" x="550.207031"/>
      <use xlink:href="#DejaVuSans-72" x="589.570312"/>
      <use xlink:href="#DejaVuSans-61" x="630.683594"/>
      <use xlink:href="#DejaVuSans-79" x="691.962891"/>
     </g>
    </g>
   </g>
  </g>
 </g>
 <defs>
  <clipPath id="pdf64a2c236">
   <rect x="117" y="51.84" width="725.4" height="332.64"/>
  </clipPath>
 </defs>
</svg>
