<?xml version="1.0" encoding="utf-8" standalone="no"?>
<!DOCTYPE svg PUBLIC "-//W3C//DTD SVG 1.1//EN"
  "http://www.w3.org/Graphics/SVG/1.1/DTD/svg11.dtd">
<svg xmlns:xlink="http://www.w3.org/1999/xlink" width="576pt" height="432pt" viewBox="0 0 576 432" xmlns="http://www.w3.org/2000/svg" version="1.1">
 <metadata>
  <rdf:RDF xmlns:dc="http://purl.org/dc/elements/1.1/" xmlns:cc="http://creativecommons.org/ns#" xmlns:rdf="http://www.w3.org/1999/02/22-rdf-syntax-ns#">
   <cc:Work>
    <dc:type rdf:resource="http://purl.org/dc/dcmitype/StillImage"/>
    <dc:date>2023-04-18T14:38:45.656659</dc:date>
    <dc:format>image/svg+xml</dc:format>
    <dc:creator>
     <cc:Agent>
      <dc:title>Matplotlib v3.7.1, https://matplotlib.org/</dc:title>
     </cc:Agent>
    </dc:creator>
   </cc:Work>
  </rdf:RDF>
 </metadata>
 <defs>
  <style type="text/css">*{stroke-linejoin: round; stroke-linecap: butt}</style>
 </defs>
 <g id="figure_1">
  <g id="patch_1">
   <path d="M 0 432 
L 576 432 
L 576 0 
L 0 0 
z
" style="fill: #ffffff"/>
  </g>
  <g id="axes_1">
   <g id="patch_2">
    <path d="M 72 203.04 
L 518.4 203.04 
L 518.4 51.84 
L 72 51.84 
z
" style="fill: #ffffff"/>
   </g>
   <g id="PolyCollection_1">
    <defs>
     <path id="m253bdce3e9" d="M 72 -231.602202 
L 72 -228.96 
L 80.422642 -228.96 
L 88.845283 -228.96 
L 97.267925 -228.96 
L 105.690566 -228.96 
L 114.113208 -228.96 
L 122.535849 -228.96 
L 130.958491 -228.96 
L 139.381132 -228.96 
L 147.803774 -228.96 
L 156.226415 -228.96 
L 164.649057 -228.96 
L 173.071698 -228.96 
L 181.49434 -228.96 
L 189.916981 -228.96 
L 198.339623 -228.96 
L 206.762264 -228.96 
L 215.184906 -228.96 
L 223.607547 -228.96 
L 232.030189 -228.96 
L 240.45283 -228.96 
L 248.875472 -228.96 
L 257.298113 -228.96 
L 265.720755 -228.96 
L 274.143396 -228.96 
L 282.566038 -228.96 
L 290.988679 -228.96 
L 299.411321 -228.96 
L 307.833962 -228.96 
L 316.256604 -228.96 
L 324.679245 -228.96 
L 333.101887 -228.96 
L 341.524528 -228.96 
L 349.94717 -228.96 
L 358.369811 -228.96 
L 366.792453 -228.96 
L 375.215094 -228.96 
L 383.637736 -228.96 
L 392.060377 -228.96 
L 400.483019 -228.96 
L 408.90566 -228.96 
L 417.328302 -228.96 
L 425.750943 -228.96 
L 434.173585 -228.96 
L 442.596226 -228.96 
L 451.018868 -228.96 
L 459.441509 -228.96 
L 467.864151 -228.96 
L 476.286792 -228.96 
L 484.709434 -228.96 
L 493.132075 -228.96 
L 501.554717 -228.96 
L 509.977358 -228.96 
L 518.4 -228.96 
L 518.4 -228.96 
L 518.4 -228.96 
L 509.977358 -228.96 
L 501.554717 -230.281101 
L 493.132075 -230.281101 
L 484.709434 -230.281101 
L 476.286792 -230.281101 
L 467.864151 -232.923303 
L 459.441509 -236.886606 
L 451.018868 -228.96 
L 442.596226 -228.96 
L 434.173585 -228.96 
L 425.750943 -230.281101 
L 417.328302 -231.602202 
L 408.90566 -228.96 
L 400.483019 -236.886606 
L 392.060377 -228.96 
L 383.637736 -232.923303 
L 375.215094 -234.244404 
L 366.792453 -234.244404 
L 358.369811 -232.923303 
L 349.94717 -228.96 
L 341.524528 -231.602202 
L 333.101887 -231.602202 
L 324.679245 -230.281101 
L 316.256604 -232.923303 
L 307.833962 -235.565505 
L 299.411321 -231.602202 
L 290.988679 -235.565505 
L 282.566038 -234.244404 
L 274.143396 -230.281101 
L 265.720755 -230.281101 
L 257.298113 -232.923303 
L 248.875472 -259.345321 
L 240.45283 -232.923303 
L 232.030189 -244.813211 
L 223.607547 -230.281101 
L 215.184906 -232.923303 
L 206.762264 -228.96 
L 198.339623 -231.602202 
L 189.916981 -234.244404 
L 181.49434 -254.060917 
L 173.071698 -246.134312 
L 164.649057 -247.455413 
L 156.226415 -236.886606 
L 147.803774 -234.244404 
L 139.381132 -228.96 
L 130.958491 -234.244404 
L 122.535849 -231.602202 
L 114.113208 -234.244404 
L 105.690566 -231.602202 
L 97.267925 -230.281101 
L 88.845283 -231.602202 
L 80.422642 -228.96 
L 72 -231.602202 
z
" style="stroke: #ffa500"/>
    </defs>
    <g clip-path="url(#p1e01ddecc1)">
     <use xlink:href="#m253bdce3e9" x="0" y="432" style="fill: #ffa500; stroke: #ffa500"/>
    </g>
   </g>
   <g id="PolyCollection_2">
    <defs>
     <path id="m6d536f3107" d="M 72 -231.602202 
L 72 -231.602202 
L 80.422642 -228.96 
L 88.845283 -231.602202 
L 97.267925 -230.281101 
L 105.690566 -231.602202 
L 114.113208 -234.244404 
L 122.535849 -231.602202 
L 130.958491 -234.244404 
L 139.381132 -228.96 
L 147.803774 -234.244404 
L 156.226415 -236.886606 
L 164.649057 -247.455413 
L 173.071698 -246.134312 
L 181.49434 -254.060917 
L 189.916981 -234.244404 
L 198.339623 -231.602202 
L 206.762264 -228.96 
L 215.184906 -232.923303 
L 223.607547 -230.281101 
L 232.030189 -244.813211 
L 240.45283 -232.923303 
L 248.875472 -259.345321 
L 257.298113 -232.923303 
L 265.720755 -230.281101 
L 274.143396 -230.281101 
L 282.566038 -234.244404 
L 290.988679 -235.565505 
L 299.411321 -231.602202 
L 307.833962 -235.565505 
L 316.256604 -232.923303 
L 324.679245 -230.281101 
L 333.101887 -231.602202 
L 341.524528 -231.602202 
L 349.94717 -228.96 
L 358.369811 -232.923303 
L 366.792453 -234.244404 
L 375.215094 -234.244404 
L 383.637736 -232.923303 
L 392.060377 -228.96 
L 400.483019 -236.886606 
L 408.90566 -228.96 
L 417.328302 -231.602202 
L 425.750943 -230.281101 
L 434.173585 -228.96 
L 442.596226 -228.96 
L 451.018868 -228.96 
L 459.441509 -236.886606 
L 467.864151 -232.923303 
L 476.286792 -230.281101 
L 484.709434 -230.281101 
L 493.132075 -230.281101 
L 501.554717 -230.281101 
L 509.977358 -228.96 
L 518.4 -228.96 
L 518.4 -232.923303 
L 518.4 -232.923303 
L 509.977358 -235.565505 
L 501.554717 -293.693945 
L 493.132075 -309.547156 
L 484.709434 -268.593028 
L 476.286792 -322.758165 
L 467.864151 -292.372844 
L 459.441509 -372.96 
L 451.018868 -289.730642 
L 442.596226 -279.161835 
L 434.173585 -322.758165 
L 425.750943 -342.574679 
L 417.328302 -339.932477 
L 408.90566 -273.877431 
L 400.483019 -279.161835 
L 392.060377 -248.776514 
L 383.637736 -252.739817 
L 375.215094 -255.382018 
L 366.792453 -272.55633 
L 358.369811 -317.473761 
L 349.94717 -261.987523 
L 341.524528 -283.125138 
L 333.101887 -281.804037 
L 324.679245 -250.097615 
L 316.256604 -260.666422 
L 307.833962 -277.840734 
L 299.411321 -252.739817 
L 290.988679 -250.097615 
L 282.566038 -240.849908 
L 274.143396 -232.923303 
L 265.720755 -235.565505 
L 257.298113 -236.886606 
L 248.875472 -263.308624 
L 240.45283 -238.207706 
L 232.030189 -247.455413 
L 223.607547 -230.281101 
L 215.184906 -234.244404 
L 206.762264 -230.281101 
L 198.339623 -231.602202 
L 189.916981 -234.244404 
L 181.49434 -254.060917 
L 173.071698 -246.134312 
L 164.649057 -247.455413 
L 156.226415 -236.886606 
L 147.803774 -234.244404 
L 139.381132 -228.96 
L 130.958491 -234.244404 
L 122.535849 -231.602202 
L 114.113208 -234.244404 
L 105.690566 -231.602202 
L 97.267925 -230.281101 
L 88.845283 -231.602202 
L 80.422642 -228.96 
L 72 -231.602202 
z
" style="stroke: #008000"/>
    </defs>
    <g clip-path="url(#p1e01ddecc1)">
     <use xlink:href="#m6d536f3107" x="0" y="432" style="fill: #008000; stroke: #008000"/>
    </g>
   </g>
   <g id="matplotlib.axis_1">
    <g id="xtick_1">
     <g id="line2d_1">
      <defs>
       <path id="m4cd563859b" d="M 0 0 
L 0 3.5 
" style="stroke: #000000; stroke-width: 0.8"/>
      </defs>
      <g>
       <use xlink:href="#m4cd563859b" x="88.845283" y="203.04" style="stroke: #000000; stroke-width: 0.8"/>
      </g>
     </g>
     <g id="text_1">
      <!-- 2019 -->
      <g transform="translate(76.120283 217.638437) scale(0.1 -0.1)">
       <defs>
        <path id="DejaVuSans-32" d="M 1228 531 
L 3431 531 
L 3431 0 
L 469 0 
L 469 531 
Q 828 903 1448 1529 
Q 2069 2156 2228 2338 
Q 2531 2678 2651 2914 
Q 2772 3150 2772 3378 
Q 2772 3750 2511 3984 
Q 2250 4219 1831 4219 
Q 1534 4219 1204 4116 
Q 875 4013 500 3803 
L 500 4441 
Q 881 4594 1212 4672 
Q 1544 4750 1819 4750 
Q 2544 4750 2975 4387 
Q 3406 4025 3406 3419 
Q 3406 3131 3298 2873 
Q 3191 2616 2906 2266 
Q 2828 2175 2409 1742 
Q 1991 1309 1228 531 
z
" transform="scale(0.015625)"/>
        <path id="DejaVuSans-30" d="M 2034 4250 
Q 1547 4250 1301 3770 
Q 1056 3291 1056 2328 
Q 1056 1369 1301 889 
Q 1547 409 2034 409 
Q 2525 409 2770 889 
Q 3016 1369 3016 2328 
Q 3016 3291 2770 3770 
Q 2525 4250 2034 4250 
z
M 2034 4750 
Q 2819 4750 3233 4129 
Q 3647 3509 3647 2328 
Q 3647 1150 3233 529 
Q 2819 -91 2034 -91 
Q 1250 -91 836 529 
Q 422 1150 422 2328 
Q 422 3509 836 4129 
Q 1250 4750 2034 4750 
z
" transform="scale(0.015625)"/>
        <path id="DejaVuSans-31" d="M 794 531 
L 1825 531 
L 1825 4091 
L 703 3866 
L 703 4441 
L 1819 4666 
L 2450 4666 
L 2450 531 
L 3481 531 
L 3481 0 
L 794 0 
L 794 531 
z
" transform="scale(0.015625)"/>
        <path id="DejaVuSans-39" d="M 703 97 
L 703 672 
Q 941 559 1184 500 
Q 1428 441 1663 441 
Q 2288 441 2617 861 
Q 2947 1281 2994 2138 
Q 2813 1869 2534 1725 
Q 2256 1581 1919 1581 
Q 1219 1581 811 2004 
Q 403 2428 403 3163 
Q 403 3881 828 4315 
Q 1253 4750 1959 4750 
Q 2769 4750 3195 4129 
Q 3622 3509 3622 2328 
Q 3622 1225 3098 567 
Q 2575 -91 1691 -91 
Q 1453 -91 1209 -44 
Q 966 3 703 97 
z
M 1959 2075 
Q 2384 2075 2632 2365 
Q 2881 2656 2881 3163 
Q 2881 3666 2632 3958 
Q 2384 4250 1959 4250 
Q 1534 4250 1286 3958 
Q 1038 3666 1038 3163 
Q 1038 2656 1286 2365 
Q 1534 2075 1959 2075 
z
" transform="scale(0.015625)"/>
       </defs>
       <use xlink:href="#DejaVuSans-32"/>
       <use xlink:href="#DejaVuSans-30" x="63.623047"/>
       <use xlink:href="#DejaVuSans-31" x="127.246094"/>
       <use xlink:href="#DejaVuSans-39" x="190.869141"/>
      </g>
     </g>
    </g>
    <g id="xtick_2">
     <g id="line2d_2">
      <g>
       <use xlink:href="#m4cd563859b" x="189.916981" y="203.04" style="stroke: #000000; stroke-width: 0.8"/>
      </g>
     </g>
     <g id="text_2">
      <!-- 2020 -->
      <g transform="translate(177.191981 217.638437) scale(0.1 -0.1)">
       <use xlink:href="#DejaVuSans-32"/>
       <use xlink:href="#DejaVuSans-30" x="63.623047"/>
       <use xlink:href="#DejaVuSans-32" x="127.246094"/>
       <use xlink:href="#DejaVuSans-30" x="190.869141"/>
      </g>
     </g>
    </g>
    <g id="xtick_3">
     <g id="line2d_3">
      <g>
       <use xlink:href="#m4cd563859b" x="290.988679" y="203.04" style="stroke: #000000; stroke-width: 0.8"/>
      </g>
     </g>
     <g id="text_3">
      <!-- 2021 -->
      <g transform="translate(278.263679 217.638437) scale(0.1 -0.1)">
       <use xlink:href="#DejaVuSans-32"/>
       <use xlink:href="#DejaVuSans-30" x="63.623047"/>
       <use xlink:href="#DejaVuSans-32" x="127.246094"/>
       <use xlink:href="#DejaVuSans-31" x="190.869141"/>
      </g>
     </g>
    </g>
    <g id="xtick_4">
     <g id="line2d_4">
      <g>
       <use xlink:href="#m4cd563859b" x="392.060377" y="203.04" style="stroke: #000000; stroke-width: 0.8"/>
      </g>
     </g>
     <g id="text_4">
      <!-- 2022 -->
      <g transform="translate(379.335377 217.638437) scale(0.1 -0.1)">
       <use xlink:href="#DejaVuSans-32"/>
       <use xlink:href="#DejaVuSans-30" x="63.623047"/>
       <use xlink:href="#DejaVuSans-32" x="127.246094"/>
       <use xlink:href="#DejaVuSans-32" x="190.869141"/>
      </g>
     </g>
    </g>
    <g id="xtick_5">
     <g id="line2d_5">
      <g>
       <use xlink:href="#m4cd563859b" x="493.132075" y="203.04" style="stroke: #000000; stroke-width: 0.8"/>
      </g>
     </g>
     <g id="text_5">
      <!-- 2023 -->
      <g transform="translate(480.407075 217.638437) scale(0.1 -0.1)">
       <defs>
        <path id="DejaVuSans-33" d="M 2597 2516 
Q 3050 2419 3304 2112 
Q 3559 1806 3559 1356 
Q 3559 666 3084 287 
Q 2609 -91 1734 -91 
Q 1441 -91 1130 -33 
Q 819 25 488 141 
L 488 750 
Q 750 597 1062 519 
Q 1375 441 1716 441 
Q 2309 441 2620 675 
Q 2931 909 2931 1356 
Q 2931 1769 2642 2001 
Q 2353 2234 1838 2234 
L 1294 2234 
L 1294 2753 
L 1863 2753 
Q 2328 2753 2575 2939 
Q 2822 3125 2822 3475 
Q 2822 3834 2567 4026 
Q 2313 4219 1838 4219 
Q 1578 4219 1281 4162 
Q 984 4106 628 3988 
L 628 4550 
Q 988 4650 1302 4700 
Q 1616 4750 1894 4750 
Q 2613 4750 3031 4423 
Q 3450 4097 3450 3541 
Q 3450 3153 3228 2886 
Q 3006 2619 2597 2516 
z
" transform="scale(0.015625)"/>
       </defs>
       <use xlink:href="#DejaVuSans-32"/>
       <use xlink:href="#DejaVuSans-30" x="63.623047"/>
       <use xlink:href="#DejaVuSans-32" x="127.246094"/>
       <use xlink:href="#DejaVuSans-33" x="190.869141"/>
      </g>
     </g>
    </g>
    <g id="xtick_6">
     <g id="line2d_6">
      <defs>
       <path id="mf7e21840c8" d="M 0 0 
L 0 2 
" style="stroke: #000000; stroke-width: 0.6"/>
      </defs>
      <g>
       <use xlink:href="#mf7e21840c8" x="114.113208" y="203.04" style="stroke: #000000; stroke-width: 0.6"/>
      </g>
     </g>
    </g>
    <g id="xtick_7">
     <g id="line2d_7">
      <g>
       <use xlink:href="#mf7e21840c8" x="139.381132" y="203.04" style="stroke: #000000; stroke-width: 0.6"/>
      </g>
     </g>
    </g>
    <g id="xtick_8">
     <g id="line2d_8">
      <g>
       <use xlink:href="#mf7e21840c8" x="164.649057" y="203.04" style="stroke: #000000; stroke-width: 0.6"/>
      </g>
     </g>
    </g>
    <g id="xtick_9">
     <g id="line2d_9">
      <g>
       <use xlink:href="#mf7e21840c8" x="215.184906" y="203.04" style="stroke: #000000; stroke-width: 0.6"/>
      </g>
     </g>
    </g>
    <g id="xtick_10">
     <g id="line2d_10">
      <g>
       <use xlink:href="#mf7e21840c8" x="240.45283" y="203.04" style="stroke: #000000; stroke-width: 0.6"/>
      </g>
     </g>
    </g>
    <g id="xtick_11">
     <g id="line2d_11">
      <g>
       <use xlink:href="#mf7e21840c8" x="265.720755" y="203.04" style="stroke: #000000; stroke-width: 0.6"/>
      </g>
     </g>
    </g>
    <g id="xtick_12">
     <g id="line2d_12">
      <g>
       <use xlink:href="#mf7e21840c8" x="316.256604" y="203.04" style="stroke: #000000; stroke-width: 0.6"/>
      </g>
     </g>
    </g>
    <g id="xtick_13">
     <g id="line2d_13">
      <g>
       <use xlink:href="#mf7e21840c8" x="341.524528" y="203.04" style="stroke: #000000; stroke-width: 0.6"/>
      </g>
     </g>
    </g>
    <g id="xtick_14">
     <g id="line2d_14">
      <g>
       <use xlink:href="#mf7e21840c8" x="366.792453" y="203.04" style="stroke: #000000; stroke-width: 0.6"/>
      </g>
     </g>
    </g>
    <g id="xtick_15">
     <g id="line2d_15">
      <g>
       <use xlink:href="#mf7e21840c8" x="417.328302" y="203.04" style="stroke: #000000; stroke-width: 0.6"/>
      </g>
     </g>
    </g>
    <g id="xtick_16">
     <g id="line2d_16">
      <g>
       <use xlink:href="#mf7e21840c8" x="442.596226" y="203.04" style="stroke: #000000; stroke-width: 0.6"/>
      </g>
     </g>
    </g>
    <g id="xtick_17">
     <g id="line2d_17">
      <g>
       <use xlink:href="#mf7e21840c8" x="467.864151" y="203.04" style="stroke: #000000; stroke-width: 0.6"/>
      </g>
     </g>
    </g>
    <g id="xtick_18">
     <g id="line2d_18">
      <g>
       <use xlink:href="#mf7e21840c8" x="518.4" y="203.04" style="stroke: #000000; stroke-width: 0.6"/>
      </g>
     </g>
    </g>
   </g>
   <g id="matplotlib.axis_2">
    <g id="ytick_1">
     <g id="line2d_19">
      <defs>
       <path id="mac250f6f5f" d="M 0 0 
L -3.5 0 
" style="stroke: #000000; stroke-width: 0.8"/>
      </defs>
      <g>
       <use xlink:href="#mac250f6f5f" x="72" y="203.04" style="stroke: #000000; stroke-width: 0.8"/>
      </g>
     </g>
     <g id="text_6">
      <!-- 0 -->
      <g transform="translate(58.6375 206.839219) scale(0.1 -0.1)">
       <use xlink:href="#DejaVuSans-30"/>
      </g>
     </g>
    </g>
    <g id="ytick_2">
     <g id="line2d_20">
      <g>
       <use xlink:href="#mac250f6f5f" x="72" y="176.617982" style="stroke: #000000; stroke-width: 0.8"/>
      </g>
     </g>
     <g id="text_7">
      <!-- 20 -->
      <g transform="translate(52.275 180.4172) scale(0.1 -0.1)">
       <use xlink:href="#DejaVuSans-32"/>
       <use xlink:href="#DejaVuSans-30" x="63.623047"/>
      </g>
     </g>
    </g>
    <g id="ytick_3">
     <g id="line2d_21">
      <g>
       <use xlink:href="#mac250f6f5f" x="72" y="150.195963" style="stroke: #000000; stroke-width: 0.8"/>
      </g>
     </g>
     <g id="text_8">
      <!-- 40 -->
      <g transform="translate(52.275 153.995182) scale(0.1 -0.1)">
       <defs>
        <path id="DejaVuSans-34" d="M 2419 4116 
L 825 1625 
L 2419 1625 
L 2419 4116 
z
M 2253 4666 
L 3047 4666 
L 3047 1625 
L 3713 1625 
L 3713 1100 
L 3047 1100 
L 3047 0 
L 2419 0 
L 2419 1100 
L 313 1100 
L 313 1709 
L 2253 4666 
z
" transform="scale(0.015625)"/>
       </defs>
       <use xlink:href="#DejaVuSans-34"/>
       <use xlink:href="#DejaVuSans-30" x="63.623047"/>
      </g>
     </g>
    </g>
    <g id="ytick_4">
     <g id="line2d_22">
      <g>
       <use xlink:href="#mac250f6f5f" x="72" y="123.773945" style="stroke: #000000; stroke-width: 0.8"/>
      </g>
     </g>
     <g id="text_9">
      <!-- 60 -->
      <g transform="translate(52.275 127.573164) scale(0.1 -0.1)">
       <defs>
        <path id="DejaVuSans-36" d="M 2113 2584 
Q 1688 2584 1439 2293 
Q 1191 2003 1191 1497 
Q 1191 994 1439 701 
Q 1688 409 2113 409 
Q 2538 409 2786 701 
Q 3034 994 3034 1497 
Q 3034 2003 2786 2293 
Q 2538 2584 2113 2584 
z
M 3366 4563 
L 3366 3988 
Q 3128 4100 2886 4159 
Q 2644 4219 2406 4219 
Q 1781 4219 1451 3797 
Q 1122 3375 1075 2522 
Q 1259 2794 1537 2939 
Q 1816 3084 2150 3084 
Q 2853 3084 3261 2657 
Q 3669 2231 3669 1497 
Q 3669 778 3244 343 
Q 2819 -91 2113 -91 
Q 1303 -91 875 529 
Q 447 1150 447 2328 
Q 447 3434 972 4092 
Q 1497 4750 2381 4750 
Q 2619 4750 2861 4703 
Q 3103 4656 3366 4563 
z
" transform="scale(0.015625)"/>
       </defs>
       <use xlink:href="#DejaVuSans-36"/>
       <use xlink:href="#DejaVuSans-30" x="63.623047"/>
      </g>
     </g>
    </g>
    <g id="ytick_5">
     <g id="line2d_23">
      <g>
       <use xlink:href="#mac250f6f5f" x="72" y="97.351927" style="stroke: #000000; stroke-width: 0.8"/>
      </g>
     </g>
     <g id="text_10">
      <!-- 80 -->
      <g transform="translate(52.275 101.151145) scale(0.1 -0.1)">
       <defs>
        <path id="DejaVuSans-38" d="M 2034 2216 
Q 1584 2216 1326 1975 
Q 1069 1734 1069 1313 
Q 1069 891 1326 650 
Q 1584 409 2034 409 
Q 2484 409 2743 651 
Q 3003 894 3003 1313 
Q 3003 1734 2745 1975 
Q 2488 2216 2034 2216 
z
M 1403 2484 
Q 997 2584 770 2862 
Q 544 3141 544 3541 
Q 544 4100 942 4425 
Q 1341 4750 2034 4750 
Q 2731 4750 3128 4425 
Q 3525 4100 3525 3541 
Q 3525 3141 3298 2862 
Q 3072 2584 2669 2484 
Q 3125 2378 3379 2068 
Q 3634 1759 3634 1313 
Q 3634 634 3220 271 
Q 2806 -91 2034 -91 
Q 1263 -91 848 271 
Q 434 634 434 1313 
Q 434 1759 690 2068 
Q 947 2378 1403 2484 
z
M 1172 3481 
Q 1172 3119 1398 2916 
Q 1625 2713 2034 2713 
Q 2441 2713 2670 2916 
Q 2900 3119 2900 3481 
Q 2900 3844 2670 4047 
Q 2441 4250 2034 4250 
Q 1625 4250 1398 4047 
Q 1172 3844 1172 3481 
z
" transform="scale(0.015625)"/>
       </defs>
       <use xlink:href="#DejaVuSans-38"/>
       <use xlink:href="#DejaVuSans-30" x="63.623047"/>
      </g>
     </g>
    </g>
    <g id="ytick_6">
     <g id="line2d_24">
      <g>
       <use xlink:href="#mac250f6f5f" x="72" y="70.929908" style="stroke: #000000; stroke-width: 0.8"/>
      </g>
     </g>
     <g id="text_11">
      <!-- 100 -->
      <g transform="translate(45.9125 74.729127) scale(0.1 -0.1)">
       <use xlink:href="#DejaVuSans-31"/>
       <use xlink:href="#DejaVuSans-30" x="63.623047"/>
       <use xlink:href="#DejaVuSans-30" x="127.246094"/>
      </g>
     </g>
    </g>
    <g id="text_12">
     <!-- number of files per month -->
     <g transform="translate(39.832812 192.882969) rotate(-90) scale(0.1 -0.1)">
      <defs>
       <path id="DejaVuSans-6e" d="M 3513 2113 
L 3513 0 
L 2938 0 
L 2938 2094 
Q 2938 2591 2744 2837 
Q 2550 3084 2163 3084 
Q 1697 3084 1428 2787 
Q 1159 2491 1159 1978 
L 1159 0 
L 581 0 
L 581 3500 
L 1159 3500 
L 1159 2956 
Q 1366 3272 1645 3428 
Q 1925 3584 2291 3584 
Q 2894 3584 3203 3211 
Q 3513 2838 3513 2113 
z
" transform="scale(0.015625)"/>
       <path id="DejaVuSans-75" d="M 544 1381 
L 544 3500 
L 1119 3500 
L 1119 1403 
Q 1119 906 1312 657 
Q 1506 409 1894 409 
Q 2359 409 2629 706 
Q 2900 1003 2900 1516 
L 2900 3500 
L 3475 3500 
L 3475 0 
L 2900 0 
L 2900 538 
Q 2691 219 2414 64 
Q 2138 -91 1772 -91 
Q 1169 -91 856 284 
Q 544 659 544 1381 
z
M 1991 3584 
L 1991 3584 
z
" transform="scale(0.015625)"/>
       <path id="DejaVuSans-6d" d="M 3328 2828 
Q 3544 3216 3844 3400 
Q 4144 3584 4550 3584 
Q 5097 3584 5394 3201 
Q 5691 2819 5691 2113 
L 5691 0 
L 5113 0 
L 5113 2094 
Q 5113 2597 4934 2840 
Q 4756 3084 4391 3084 
Q 3944 3084 3684 2787 
Q 3425 2491 3425 1978 
L 3425 0 
L 2847 0 
L 2847 2094 
Q 2847 2600 2669 2842 
Q 2491 3084 2119 3084 
Q 1678 3084 1418 2786 
Q 1159 2488 1159 1978 
L 1159 0 
L 581 0 
L 581 3500 
L 1159 3500 
L 1159 2956 
Q 1356 3278 1631 3431 
Q 1906 3584 2284 3584 
Q 2666 3584 2933 3390 
Q 3200 3197 3328 2828 
z
" transform="scale(0.015625)"/>
       <path id="DejaVuSans-62" d="M 3116 1747 
Q 3116 2381 2855 2742 
Q 2594 3103 2138 3103 
Q 1681 3103 1420 2742 
Q 1159 2381 1159 1747 
Q 1159 1113 1420 752 
Q 1681 391 2138 391 
Q 2594 391 2855 752 
Q 3116 1113 3116 1747 
z
M 1159 2969 
Q 1341 3281 1617 3432 
Q 1894 3584 2278 3584 
Q 2916 3584 3314 3078 
Q 3713 2572 3713 1747 
Q 3713 922 3314 415 
Q 2916 -91 2278 -91 
Q 1894 -91 1617 61 
Q 1341 213 1159 525 
L 1159 0 
L 581 0 
L 581 4863 
L 1159 4863 
L 1159 2969 
z
" transform="scale(0.015625)"/>
       <path id="DejaVuSans-65" d="M 3597 1894 
L 3597 1613 
L 953 1613 
Q 991 1019 1311 708 
Q 1631 397 2203 397 
Q 2534 397 2845 478 
Q 3156 559 3463 722 
L 3463 178 
Q 3153 47 2828 -22 
Q 2503 -91 2169 -91 
Q 1331 -91 842 396 
Q 353 884 353 1716 
Q 353 2575 817 3079 
Q 1281 3584 2069 3584 
Q 2775 3584 3186 3129 
Q 3597 2675 3597 1894 
z
M 3022 2063 
Q 3016 2534 2758 2815 
Q 2500 3097 2075 3097 
Q 1594 3097 1305 2825 
Q 1016 2553 972 2059 
L 3022 2063 
z
" transform="scale(0.015625)"/>
       <path id="DejaVuSans-72" d="M 2631 2963 
Q 2534 3019 2420 3045 
Q 2306 3072 2169 3072 
Q 1681 3072 1420 2755 
Q 1159 2438 1159 1844 
L 1159 0 
L 581 0 
L 581 3500 
L 1159 3500 
L 1159 2956 
Q 1341 3275 1631 3429 
Q 1922 3584 2338 3584 
Q 2397 3584 2469 3576 
Q 2541 3569 2628 3553 
L 2631 2963 
z
" transform="scale(0.015625)"/>
       <path id="DejaVuSans-20" transform="scale(0.015625)"/>
       <path id="DejaVuSans-6f" d="M 1959 3097 
Q 1497 3097 1228 2736 
Q 959 2375 959 1747 
Q 959 1119 1226 758 
Q 1494 397 1959 397 
Q 2419 397 2687 759 
Q 2956 1122 2956 1747 
Q 2956 2369 2687 2733 
Q 2419 3097 1959 3097 
z
M 1959 3584 
Q 2709 3584 3137 3096 
Q 3566 2609 3566 1747 
Q 3566 888 3137 398 
Q 2709 -91 1959 -91 
Q 1206 -91 779 398 
Q 353 888 353 1747 
Q 353 2609 779 3096 
Q 1206 3584 1959 3584 
z
" transform="scale(0.015625)"/>
       <path id="DejaVuSans-66" d="M 2375 4863 
L 2375 4384 
L 1825 4384 
Q 1516 4384 1395 4259 
Q 1275 4134 1275 3809 
L 1275 3500 
L 2222 3500 
L 2222 3053 
L 1275 3053 
L 1275 0 
L 697 0 
L 697 3053 
L 147 3053 
L 147 3500 
L 697 3500 
L 697 3744 
Q 697 4328 969 4595 
Q 1241 4863 1831 4863 
L 2375 4863 
z
" transform="scale(0.015625)"/>
       <path id="DejaVuSans-69" d="M 603 3500 
L 1178 3500 
L 1178 0 
L 603 0 
L 603 3500 
z
M 603 4863 
L 1178 4863 
L 1178 4134 
L 603 4134 
L 603 4863 
z
" transform="scale(0.015625)"/>
       <path id="DejaVuSans-6c" d="M 603 4863 
L 1178 4863 
L 1178 0 
L 603 0 
L 603 4863 
z
" transform="scale(0.015625)"/>
       <path id="DejaVuSans-73" d="M 2834 3397 
L 2834 2853 
Q 2591 2978 2328 3040 
Q 2066 3103 1784 3103 
Q 1356 3103 1142 2972 
Q 928 2841 928 2578 
Q 928 2378 1081 2264 
Q 1234 2150 1697 2047 
L 1894 2003 
Q 2506 1872 2764 1633 
Q 3022 1394 3022 966 
Q 3022 478 2636 193 
Q 2250 -91 1575 -91 
Q 1294 -91 989 -36 
Q 684 19 347 128 
L 347 722 
Q 666 556 975 473 
Q 1284 391 1588 391 
Q 1994 391 2212 530 
Q 2431 669 2431 922 
Q 2431 1156 2273 1281 
Q 2116 1406 1581 1522 
L 1381 1569 
Q 847 1681 609 1914 
Q 372 2147 372 2553 
Q 372 3047 722 3315 
Q 1072 3584 1716 3584 
Q 2034 3584 2315 3537 
Q 2597 3491 2834 3397 
z
" transform="scale(0.015625)"/>
       <path id="DejaVuSans-70" d="M 1159 525 
L 1159 -1331 
L 581 -1331 
L 581 3500 
L 1159 3500 
L 1159 2969 
Q 1341 3281 1617 3432 
Q 1894 3584 2278 3584 
Q 2916 3584 3314 3078 
Q 3713 2572 3713 1747 
Q 3713 922 3314 415 
Q 2916 -91 2278 -91 
Q 1894 -91 1617 61 
Q 1341 213 1159 525 
z
M 3116 1747 
Q 3116 2381 2855 2742 
Q 2594 3103 2138 3103 
Q 1681 3103 1420 2742 
Q 1159 2381 1159 1747 
Q 1159 1113 1420 752 
Q 1681 391 2138 391 
Q 2594 391 2855 752 
Q 3116 1113 3116 1747 
z
" transform="scale(0.015625)"/>
       <path id="DejaVuSans-74" d="M 1172 4494 
L 1172 3500 
L 2356 3500 
L 2356 3053 
L 1172 3053 
L 1172 1153 
Q 1172 725 1289 603 
Q 1406 481 1766 481 
L 2356 481 
L 2356 0 
L 1766 0 
Q 1100 0 847 248 
Q 594 497 594 1153 
L 594 3053 
L 172 3053 
L 172 3500 
L 594 3500 
L 594 4494 
L 1172 4494 
z
" transform="scale(0.015625)"/>
       <path id="DejaVuSans-68" d="M 3513 2113 
L 3513 0 
L 2938 0 
L 2938 2094 
Q 2938 2591 2744 2837 
Q 2550 3084 2163 3084 
Q 1697 3084 1428 2787 
Q 1159 2491 1159 1978 
L 1159 0 
L 581 0 
L 581 4863 
L 1159 4863 
L 1159 2956 
Q 1366 3272 1645 3428 
Q 1925 3584 2291 3584 
Q 2894 3584 3203 3211 
Q 3513 2838 3513 2113 
z
" transform="scale(0.015625)"/>
      </defs>
      <use xlink:href="#DejaVuSans-6e"/>
      <use xlink:href="#DejaVuSans-75" x="63.378906"/>
      <use xlink:href="#DejaVuSans-6d" x="126.757812"/>
      <use xlink:href="#DejaVuSans-62" x="224.169922"/>
      <use xlink:href="#DejaVuSans-65" x="287.646484"/>
      <use xlink:href="#DejaVuSans-72" x="349.169922"/>
      <use xlink:href="#DejaVuSans-20" x="390.283203"/>
      <use xlink:href="#DejaVuSans-6f" x="422.070312"/>
      <use xlink:href="#DejaVuSans-66" x="483.251953"/>
      <use xlink:href="#DejaVuSans-20" x="518.457031"/>
      <use xlink:href="#DejaVuSans-66" x="550.244141"/>
      <use xlink:href="#DejaVuSans-69" x="585.449219"/>
      <use xlink:href="#DejaVuSans-6c" x="613.232422"/>
      <use xlink:href="#DejaVuSans-65" x="641.015625"/>
      <use xlink:href="#DejaVuSans-73" x="702.539062"/>
      <use xlink:href="#DejaVuSans-20" x="754.638672"/>
      <use xlink:href="#DejaVuSans-70" x="786.425781"/>
      <use xlink:href="#DejaVuSans-65" x="849.902344"/>
      <use xlink:href="#DejaVuSans-72" x="911.425781"/>
      <use xlink:href="#DejaVuSans-20" x="952.539062"/>
      <use xlink:href="#DejaVuSans-6d" x="984.326172"/>
      <use xlink:href="#DejaVuSans-6f" x="1081.738281"/>
      <use xlink:href="#DejaVuSans-6e" x="1142.919922"/>
      <use xlink:href="#DejaVuSans-74" x="1206.298828"/>
      <use xlink:href="#DejaVuSans-68" x="1245.507812"/>
     </g>
    </g>
   </g>
   <g id="line2d_25">
    <path d="M 72 200.397798 
L 80.422642 203.04 
L 88.845283 200.397798 
L 97.267925 201.718899 
L 105.690566 200.397798 
L 114.113208 197.755596 
L 122.535849 200.397798 
L 130.958491 197.755596 
L 139.381132 203.04 
L 147.803774 197.755596 
L 156.226415 195.113394 
L 164.649057 184.544587 
L 173.071698 185.865688 
L 181.49434 177.939083 
L 189.916981 197.755596 
L 198.339623 200.397798 
L 206.762264 203.04 
L 215.184906 199.076697 
L 223.607547 201.718899 
L 232.030189 187.186789 
L 240.45283 199.076697 
L 248.875472 172.654679 
L 257.298113 199.076697 
L 265.720755 201.718899 
L 274.143396 201.718899 
L 282.566038 197.755596 
L 290.988679 196.434495 
L 299.411321 200.397798 
L 307.833962 196.434495 
L 316.256604 199.076697 
L 324.679245 201.718899 
L 333.101887 200.397798 
L 341.524528 200.397798 
L 349.94717 203.04 
L 358.369811 199.076697 
L 366.792453 197.755596 
L 375.215094 197.755596 
L 383.637736 199.076697 
L 392.060377 203.04 
L 400.483019 195.113394 
L 408.90566 203.04 
L 417.328302 200.397798 
L 425.750943 201.718899 
L 434.173585 203.04 
L 442.596226 203.04 
L 451.018868 203.04 
L 459.441509 195.113394 
L 467.864151 199.076697 
L 476.286792 201.718899 
L 484.709434 201.718899 
L 493.132075 201.718899 
L 501.554717 201.718899 
L 509.977358 203.04 
L 518.4 203.04 
" clip-path="url(#p1e01ddecc1)" style="fill: none; stroke: #ffa500; stroke-width: 1.5; stroke-linecap: square"/>
   </g>
   <g id="line2d_26">
    <path d="M 72 200.397798 
L 80.422642 203.04 
L 88.845283 200.397798 
L 97.267925 201.718899 
L 105.690566 200.397798 
L 114.113208 197.755596 
L 122.535849 200.397798 
L 130.958491 197.755596 
L 139.381132 203.04 
L 147.803774 197.755596 
L 156.226415 195.113394 
L 164.649057 184.544587 
L 173.071698 185.865688 
L 181.49434 177.939083 
L 189.916981 197.755596 
L 198.339623 200.397798 
L 206.762264 201.718899 
L 215.184906 197.755596 
L 223.607547 201.718899 
L 232.030189 184.544587 
L 240.45283 193.792294 
L 248.875472 168.691376 
L 257.298113 195.113394 
L 265.720755 196.434495 
L 274.143396 199.076697 
L 282.566038 191.150092 
L 290.988679 181.902385 
L 299.411321 179.260183 
L 307.833962 154.159266 
L 316.256604 171.333578 
L 324.679245 181.902385 
L 333.101887 150.195963 
L 341.524528 148.874862 
L 349.94717 170.012477 
L 358.369811 114.526239 
L 366.792453 159.44367 
L 375.215094 176.617982 
L 383.637736 179.260183 
L 392.060377 183.223486 
L 400.483019 152.838165 
L 408.90566 158.122569 
L 417.328302 92.067523 
L 425.750943 89.425321 
L 434.173585 109.241835 
L 442.596226 152.838165 
L 451.018868 142.269358 
L 459.441509 59.04 
L 467.864151 139.627156 
L 476.286792 109.241835 
L 484.709434 163.406972 
L 493.132075 122.452844 
L 501.554717 138.306055 
L 509.977358 196.434495 
L 518.4 199.076697 
" clip-path="url(#p1e01ddecc1)" style="fill: none; stroke: #008000; stroke-width: 1.5; stroke-linecap: square"/>
   </g>
   <g id="patch_3">
    <path d="M 72 203.04 
L 72 51.84 
" style="fill: none; stroke: #000000; stroke-width: 0.8; stroke-linejoin: miter; stroke-linecap: square"/>
   </g>
   <g id="patch_4">
    <path d="M 518.4 203.04 
L 518.4 51.84 
" style="fill: none; stroke: #000000; stroke-width: 0.8; stroke-linejoin: miter; stroke-linecap: square"/>
   </g>
   <g id="patch_5">
    <path d="M 72 203.04 
L 518.4 203.04 
" style="fill: none; stroke: #000000; stroke-width: 0.8; stroke-linejoin: miter; stroke-linecap: square"/>
   </g>
   <g id="patch_6">
    <path d="M 72 51.84 
L 518.4 51.84 
" style="fill: none; stroke: #000000; stroke-width: 0.8; stroke-linejoin: miter; stroke-linecap: square"/>
   </g>
   <g id="legend_1">
    <g id="patch_7">
     <path d="M 79 89.19625 
L 228.29375 89.19625 
Q 230.29375 89.19625 230.29375 87.19625 
L 230.29375 58.84 
Q 230.29375 56.84 228.29375 56.84 
L 79 56.84 
Q 77 56.84 77 58.84 
L 77 87.19625 
Q 77 89.19625 79 89.19625 
z
" style="fill: #ffffff; stroke: #cccccc; stroke-linejoin: miter"/>
    </g>
    <g id="patch_8">
     <path d="M 81 68.438437 
L 101 68.438437 
L 101 61.438437 
L 81 61.438437 
z
" style="fill: #008000; stroke: #008000; stroke-linejoin: miter"/>
    </g>
    <g id="text_13">
     <!-- Awkward version 1 or 2 -->
     <g transform="translate(109 68.438437) scale(0.1 -0.1)">
      <defs>
       <path id="DejaVuSans-41" d="M 2188 4044 
L 1331 1722 
L 3047 1722 
L 2188 4044 
z
M 1831 4666 
L 2547 4666 
L 4325 0 
L 3669 0 
L 3244 1197 
L 1141 1197 
L 716 0 
L 50 0 
L 1831 4666 
z
" transform="scale(0.015625)"/>
       <path id="DejaVuSans-77" d="M 269 3500 
L 844 3500 
L 1563 769 
L 2278 3500 
L 2956 3500 
L 3675 769 
L 4391 3500 
L 4966 3500 
L 4050 0 
L 3372 0 
L 2619 2869 
L 1863 0 
L 1184 0 
L 269 3500 
z
" transform="scale(0.015625)"/>
       <path id="DejaVuSans-6b" d="M 581 4863 
L 1159 4863 
L 1159 1991 
L 2875 3500 
L 3609 3500 
L 1753 1863 
L 3688 0 
L 2938 0 
L 1159 1709 
L 1159 0 
L 581 0 
L 581 4863 
z
" transform="scale(0.015625)"/>
       <path id="DejaVuSans-61" d="M 2194 1759 
Q 1497 1759 1228 1600 
Q 959 1441 959 1056 
Q 959 750 1161 570 
Q 1363 391 1709 391 
Q 2188 391 2477 730 
Q 2766 1069 2766 1631 
L 2766 1759 
L 2194 1759 
z
M 3341 1997 
L 3341 0 
L 2766 0 
L 2766 531 
Q 2569 213 2275 61 
Q 1981 -91 1556 -91 
Q 1019 -91 701 211 
Q 384 513 384 1019 
Q 384 1609 779 1909 
Q 1175 2209 1959 2209 
L 2766 2209 
L 2766 2266 
Q 2766 2663 2505 2880 
Q 2244 3097 1772 3097 
Q 1472 3097 1187 3025 
Q 903 2953 641 2809 
L 641 3341 
Q 956 3463 1253 3523 
Q 1550 3584 1831 3584 
Q 2591 3584 2966 3190 
Q 3341 2797 3341 1997 
z
" transform="scale(0.015625)"/>
       <path id="DejaVuSans-64" d="M 2906 2969 
L 2906 4863 
L 3481 4863 
L 3481 0 
L 2906 0 
L 2906 525 
Q 2725 213 2448 61 
Q 2172 -91 1784 -91 
Q 1150 -91 751 415 
Q 353 922 353 1747 
Q 353 2572 751 3078 
Q 1150 3584 1784 3584 
Q 2172 3584 2448 3432 
Q 2725 3281 2906 2969 
z
M 947 1747 
Q 947 1113 1208 752 
Q 1469 391 1925 391 
Q 2381 391 2643 752 
Q 2906 1113 2906 1747 
Q 2906 2381 2643 2742 
Q 2381 3103 1925 3103 
Q 1469 3103 1208 2742 
Q 947 2381 947 1747 
z
" transform="scale(0.015625)"/>
       <path id="DejaVuSans-76" d="M 191 3500 
L 800 3500 
L 1894 563 
L 2988 3500 
L 3597 3500 
L 2284 0 
L 1503 0 
L 191 3500 
z
" transform="scale(0.015625)"/>
      </defs>
      <use xlink:href="#DejaVuSans-41"/>
      <use xlink:href="#DejaVuSans-77" x="64.408203"/>
      <use xlink:href="#DejaVuSans-6b" x="146.195312"/>
      <use xlink:href="#DejaVuSans-77" x="204.105469"/>
      <use xlink:href="#DejaVuSans-61" x="285.892578"/>
      <use xlink:href="#DejaVuSans-72" x="347.171875"/>
      <use xlink:href="#DejaVuSans-64" x="386.535156"/>
      <use xlink:href="#DejaVuSans-20" x="450.011719"/>
      <use xlink:href="#DejaVuSans-76" x="481.798828"/>
      <use xlink:href="#DejaVuSans-65" x="540.978516"/>
      <use xlink:href="#DejaVuSans-72" x="602.501953"/>
      <use xlink:href="#DejaVuSans-73" x="643.615234"/>
      <use xlink:href="#DejaVuSans-69" x="695.714844"/>
      <use xlink:href="#DejaVuSans-6f" x="723.498047"/>
      <use xlink:href="#DejaVuSans-6e" x="784.679688"/>
      <use xlink:href="#DejaVuSans-20" x="848.058594"/>
      <use xlink:href="#DejaVuSans-31" x="879.845703"/>
      <use xlink:href="#DejaVuSans-20" x="943.46875"/>
      <use xlink:href="#DejaVuSans-6f" x="975.255859"/>
      <use xlink:href="#DejaVuSans-72" x="1036.4375"/>
      <use xlink:href="#DejaVuSans-20" x="1077.550781"/>
      <use xlink:href="#DejaVuSans-32" x="1109.337891"/>
     </g>
    </g>
    <g id="patch_9">
     <path d="M 81 83.116562 
L 101 83.116562 
L 101 76.116562 
L 81 76.116562 
z
" style="fill: #ffa500; stroke: #ffa500; stroke-linejoin: miter"/>
    </g>
    <g id="text_14">
     <!-- Awkward version 0 -->
     <g transform="translate(109 83.116562) scale(0.1 -0.1)">
      <use xlink:href="#DejaVuSans-41"/>
      <use xlink:href="#DejaVuSans-77" x="64.408203"/>
      <use xlink:href="#DejaVuSans-6b" x="146.195312"/>
      <use xlink:href="#DejaVuSans-77" x="204.105469"/>
      <use xlink:href="#DejaVuSans-61" x="285.892578"/>
      <use xlink:href="#DejaVuSans-72" x="347.171875"/>
      <use xlink:href="#DejaVuSans-64" x="386.535156"/>
      <use xlink:href="#DejaVuSans-20" x="450.011719"/>
      <use xlink:href="#DejaVuSans-76" x="481.798828"/>
      <use xlink:href="#DejaVuSans-65" x="540.978516"/>
      <use xlink:href="#DejaVuSans-72" x="602.501953"/>
      <use xlink:href="#DejaVuSans-73" x="643.615234"/>
      <use xlink:href="#DejaVuSans-69" x="695.714844"/>
      <use xlink:href="#DejaVuSans-6f" x="723.498047"/>
      <use xlink:href="#DejaVuSans-6e" x="784.679688"/>
      <use xlink:href="#DejaVuSans-20" x="848.058594"/>
      <use xlink:href="#DejaVuSans-30" x="879.845703"/>
     </g>
    </g>
   </g>
  </g>
  <g id="axes_2">
   <g id="patch_10">
    <path d="M 72 384.48 
L 518.4 384.48 
L 518.4 233.28 
L 72 233.28 
z
" style="fill: #ffffff"/>
   </g>
   <g id="PolyCollection_3">
    <defs>
     <path id="m42aee9b9ba" d="M 72 -198.72 
L 72 -47.52 
L 80.422642 -47.52 
L 88.845283 -47.52 
L 97.267925 -47.52 
L 105.690566 -47.52 
L 114.113208 -47.52 
L 122.535849 -47.52 
L 130.958491 -47.52 
L 139.381132 -47.52 
L 147.803774 -47.52 
L 156.226415 -47.52 
L 164.649057 -47.52 
L 173.071698 -47.52 
L 181.49434 -47.52 
L 189.916981 -47.52 
L 198.339623 -47.52 
L 206.762264 -47.52 
L 215.184906 -47.52 
L 223.607547 -47.52 
L 232.030189 -47.52 
L 240.45283 -47.52 
L 248.875472 -47.52 
L 257.298113 -47.52 
L 265.720755 -47.52 
L 274.143396 -47.52 
L 282.566038 -47.52 
L 290.988679 -47.52 
L 299.411321 -47.52 
L 307.833962 -47.52 
L 316.256604 -47.52 
L 324.679245 -47.52 
L 333.101887 -47.52 
L 341.524528 -47.52 
L 349.94717 -47.52 
L 358.369811 -47.52 
L 366.792453 -47.52 
L 375.215094 -47.52 
L 383.637736 -47.52 
L 392.060377 -47.52 
L 400.483019 -47.52 
L 408.90566 -47.52 
L 417.328302 -47.52 
L 425.750943 -47.52 
L 434.173585 -47.52 
L 442.596226 -47.52 
L 451.018868 -47.52 
L 459.441509 -47.52 
L 467.864151 -47.52 
L 476.286792 -47.52 
L 484.709434 -47.52 
L 493.132075 -47.52 
L 501.554717 -47.52 
L 509.977358 -47.52 
L 518.4 -47.52 
L 518.4 -47.52 
L 518.4 -47.52 
L 509.977358 -47.52 
L 501.554717 -50.605714 
L 493.132075 -49.998689 
L 484.709434 -52.56 
L 476.286792 -49.649577 
L 467.864151 -56.97 
L 459.441509 -55.842936 
L 451.018868 -47.52 
L 442.596226 -47.52 
L 434.173585 -47.52 
L 425.750943 -49.27814 
L 417.328302 -51.12 
L 408.90566 -47.52 
L 400.483019 -71.393684 
L 392.060377 -47.52 
L 383.637736 -72.72 
L 375.215094 -77.76 
L 366.792453 -65.847273 
L 358.369811 -54.290149 
L 349.94717 -47.52 
L 341.524528 -54.89561 
L 333.101887 -55.08 
L 324.679245 -56.97 
L 316.256604 -66.42 
L 307.833962 -67.952432 
L 299.411321 -64.32 
L 290.988679 -94.77 
L 282.566038 -114.72 
L 274.143396 -97.92 
L 265.720755 -77.76 
L 257.298113 -123.12 
L 248.875472 -181.273846 
L 240.45283 -112.32 
L 232.030189 -177.12 
L 223.607547 -198.72 
L 215.184906 -160.92 
L 206.762264 -47.52 
L 198.339623 -198.72 
L 189.916981 -198.72 
L 181.49434 -198.72 
L 173.071698 -198.72 
L 164.649057 -198.72 
L 156.226415 -198.72 
L 147.803774 -198.72 
L 139.381132 -47.52 
L 130.958491 -198.72 
L 122.535849 -198.72 
L 114.113208 -198.72 
L 105.690566 -198.72 
L 97.267925 -198.72 
L 88.845283 -198.72 
L 80.422642 -47.52 
L 72 -198.72 
z
" style="stroke: #ffa500"/>
    </defs>
    <g clip-path="url(#pb775e6ca31)">
     <use xlink:href="#m42aee9b9ba" x="0" y="432" style="fill: #ffa500; stroke: #ffa500"/>
    </g>
   </g>
   <g id="PolyCollection_4">
    <defs>
     <path id="m3c027d07c9" d="M 72 -198.72 
L 72 -198.72 
L 80.422642 -47.52 
L 88.845283 -198.72 
L 97.267925 -198.72 
L 105.690566 -198.72 
L 114.113208 -198.72 
L 122.535849 -198.72 
L 130.958491 -198.72 
L 139.381132 -47.52 
L 147.803774 -198.72 
L 156.226415 -198.72 
L 164.649057 -198.72 
L 173.071698 -198.72 
L 181.49434 -198.72 
L 189.916981 -198.72 
L 198.339623 -198.72 
L 206.762264 -47.52 
L 215.184906 -160.92 
L 223.607547 -198.72 
L 232.030189 -177.12 
L 240.45283 -112.32 
L 248.875472 -181.273846 
L 257.298113 -123.12 
L 265.720755 -77.76 
L 274.143396 -97.92 
L 282.566038 -114.72 
L 290.988679 -94.77 
L 299.411321 -64.32 
L 307.833962 -67.952432 
L 316.256604 -66.42 
L 324.679245 -56.97 
L 333.101887 -55.08 
L 341.524528 -54.89561 
L 349.94717 -47.52 
L 358.369811 -54.290149 
L 366.792453 -65.847273 
L 375.215094 -77.76 
L 383.637736 -72.72 
L 392.060377 -47.52 
L 400.483019 -71.393684 
L 408.90566 -47.52 
L 417.328302 -51.12 
L 425.750943 -49.27814 
L 434.173585 -47.52 
L 442.596226 -47.52 
L 451.018868 -47.52 
L 459.441509 -55.842936 
L 467.864151 -56.97 
L 476.286792 -49.649577 
L 484.709434 -52.56 
L 493.132075 -49.998689 
L 501.554717 -50.605714 
L 509.977358 -47.52 
L 518.4 -47.52 
L 518.4 -198.72 
L 518.4 -198.72 
L 509.977358 -198.72 
L 501.554717 -198.72 
L 493.132075 -198.72 
L 484.709434 -198.72 
L 476.286792 -198.72 
L 467.864151 -198.72 
L 459.441509 -198.72 
L 451.018868 -198.72 
L 442.596226 -198.72 
L 434.173585 -198.72 
L 425.750943 -198.72 
L 417.328302 -198.72 
L 408.90566 -198.72 
L 400.483019 -198.72 
L 392.060377 -198.72 
L 383.637736 -198.72 
L 375.215094 -198.72 
L 366.792453 -198.72 
L 358.369811 -198.72 
L 349.94717 -198.72 
L 341.524528 -198.72 
L 333.101887 -198.72 
L 324.679245 -198.72 
L 316.256604 -198.72 
L 307.833962 -198.72 
L 299.411321 -198.72 
L 290.988679 -198.72 
L 282.566038 -198.72 
L 274.143396 -198.72 
L 265.720755 -198.72 
L 257.298113 -198.72 
L 248.875472 -198.72 
L 240.45283 -198.72 
L 232.030189 -198.72 
L 223.607547 -198.72 
L 215.184906 -198.72 
L 206.762264 -198.72 
L 198.339623 -198.72 
L 189.916981 -198.72 
L 181.49434 -198.72 
L 173.071698 -198.72 
L 164.649057 -198.72 
L 156.226415 -198.72 
L 147.803774 -198.72 
L 139.381132 -47.52 
L 130.958491 -198.72 
L 122.535849 -198.72 
L 114.113208 -198.72 
L 105.690566 -198.72 
L 97.267925 -198.72 
L 88.845283 -198.72 
L 80.422642 -47.52 
L 72 -198.72 
z
" style="stroke: #008000"/>
    </defs>
    <g clip-path="url(#pb775e6ca31)">
     <use xlink:href="#m3c027d07c9" x="0" y="432" style="fill: #008000; stroke: #008000"/>
    </g>
   </g>
   <g id="matplotlib.axis_3">
    <g id="xtick_19">
     <g id="line2d_27">
      <g>
       <use xlink:href="#m4cd563859b" x="88.845283" y="384.48" style="stroke: #000000; stroke-width: 0.8"/>
      </g>
     </g>
     <g id="text_15">
      <!-- 2019 -->
      <g transform="translate(76.120283 399.078438) scale(0.1 -0.1)">
       <use xlink:href="#DejaVuSans-32"/>
       <use xlink:href="#DejaVuSans-30" x="63.623047"/>
       <use xlink:href="#DejaVuSans-31" x="127.246094"/>
       <use xlink:href="#DejaVuSans-39" x="190.869141"/>
      </g>
     </g>
    </g>
    <g id="xtick_20">
     <g id="line2d_28">
      <g>
       <use xlink:href="#m4cd563859b" x="189.916981" y="384.48" style="stroke: #000000; stroke-width: 0.8"/>
      </g>
     </g>
     <g id="text_16">
      <!-- 2020 -->
      <g transform="translate(177.191981 399.078438) scale(0.1 -0.1)">
       <use xlink:href="#DejaVuSans-32"/>
       <use xlink:href="#DejaVuSans-30" x="63.623047"/>
       <use xlink:href="#DejaVuSans-32" x="127.246094"/>
       <use xlink:href="#DejaVuSans-30" x="190.869141"/>
      </g>
     </g>
    </g>
    <g id="xtick_21">
     <g id="line2d_29">
      <g>
       <use xlink:href="#m4cd563859b" x="290.988679" y="384.48" style="stroke: #000000; stroke-width: 0.8"/>
      </g>
     </g>
     <g id="text_17">
      <!-- 2021 -->
      <g transform="translate(278.263679 399.078438) scale(0.1 -0.1)">
       <use xlink:href="#DejaVuSans-32"/>
       <use xlink:href="#DejaVuSans-30" x="63.623047"/>
       <use xlink:href="#DejaVuSans-32" x="127.246094"/>
       <use xlink:href="#DejaVuSans-31" x="190.869141"/>
      </g>
     </g>
    </g>
    <g id="xtick_22">
     <g id="line2d_30">
      <g>
       <use xlink:href="#m4cd563859b" x="392.060377" y="384.48" style="stroke: #000000; stroke-width: 0.8"/>
      </g>
     </g>
     <g id="text_18">
      <!-- 2022 -->
      <g transform="translate(379.335377 399.078438) scale(0.1 -0.1)">
       <use xlink:href="#DejaVuSans-32"/>
       <use xlink:href="#DejaVuSans-30" x="63.623047"/>
       <use xlink:href="#DejaVuSans-32" x="127.246094"/>
       <use xlink:href="#DejaVuSans-32" x="190.869141"/>
      </g>
     </g>
    </g>
    <g id="xtick_23">
     <g id="line2d_31">
      <g>
       <use xlink:href="#m4cd563859b" x="493.132075" y="384.48" style="stroke: #000000; stroke-width: 0.8"/>
      </g>
     </g>
     <g id="text_19">
      <!-- 2023 -->
      <g transform="translate(480.407075 399.078438) scale(0.1 -0.1)">
       <use xlink:href="#DejaVuSans-32"/>
       <use xlink:href="#DejaVuSans-30" x="63.623047"/>
       <use xlink:href="#DejaVuSans-32" x="127.246094"/>
       <use xlink:href="#DejaVuSans-33" x="190.869141"/>
      </g>
     </g>
    </g>
    <g id="xtick_24">
     <g id="line2d_32">
      <g>
       <use xlink:href="#mf7e21840c8" x="114.113208" y="384.48" style="stroke: #000000; stroke-width: 0.6"/>
      </g>
     </g>
    </g>
    <g id="xtick_25">
     <g id="line2d_33">
      <g>
       <use xlink:href="#mf7e21840c8" x="139.381132" y="384.48" style="stroke: #000000; stroke-width: 0.6"/>
      </g>
     </g>
    </g>
    <g id="xtick_26">
     <g id="line2d_34">
      <g>
       <use xlink:href="#mf7e21840c8" x="164.649057" y="384.48" style="stroke: #000000; stroke-width: 0.6"/>
      </g>
     </g>
    </g>
    <g id="xtick_27">
     <g id="line2d_35">
      <g>
       <use xlink:href="#mf7e21840c8" x="215.184906" y="384.48" style="stroke: #000000; stroke-width: 0.6"/>
      </g>
     </g>
    </g>
    <g id="xtick_28">
     <g id="line2d_36">
      <g>
       <use xlink:href="#mf7e21840c8" x="240.45283" y="384.48" style="stroke: #000000; stroke-width: 0.6"/>
      </g>
     </g>
    </g>
    <g id="xtick_29">
     <g id="line2d_37">
      <g>
       <use xlink:href="#mf7e21840c8" x="265.720755" y="384.48" style="stroke: #000000; stroke-width: 0.6"/>
      </g>
     </g>
    </g>
    <g id="xtick_30">
     <g id="line2d_38">
      <g>
       <use xlink:href="#mf7e21840c8" x="316.256604" y="384.48" style="stroke: #000000; stroke-width: 0.6"/>
      </g>
     </g>
    </g>
    <g id="xtick_31">
     <g id="line2d_39">
      <g>
       <use xlink:href="#mf7e21840c8" x="341.524528" y="384.48" style="stroke: #000000; stroke-width: 0.6"/>
      </g>
     </g>
    </g>
    <g id="xtick_32">
     <g id="line2d_40">
      <g>
       <use xlink:href="#mf7e21840c8" x="366.792453" y="384.48" style="stroke: #000000; stroke-width: 0.6"/>
      </g>
     </g>
    </g>
    <g id="xtick_33">
     <g id="line2d_41">
      <g>
       <use xlink:href="#mf7e21840c8" x="417.328302" y="384.48" style="stroke: #000000; stroke-width: 0.6"/>
      </g>
     </g>
    </g>
    <g id="xtick_34">
     <g id="line2d_42">
      <g>
       <use xlink:href="#mf7e21840c8" x="442.596226" y="384.48" style="stroke: #000000; stroke-width: 0.6"/>
      </g>
     </g>
    </g>
    <g id="xtick_35">
     <g id="line2d_43">
      <g>
       <use xlink:href="#mf7e21840c8" x="467.864151" y="384.48" style="stroke: #000000; stroke-width: 0.6"/>
      </g>
     </g>
    </g>
    <g id="xtick_36">
     <g id="line2d_44">
      <g>
       <use xlink:href="#mf7e21840c8" x="518.4" y="384.48" style="stroke: #000000; stroke-width: 0.6"/>
      </g>
     </g>
    </g>
    <g id="text_20">
     <!-- date of file last modification -->
     <g transform="translate(225.083594 412.756563) scale(0.1 -0.1)">
      <defs>
       <path id="DejaVuSans-63" d="M 3122 3366 
L 3122 2828 
Q 2878 2963 2633 3030 
Q 2388 3097 2138 3097 
Q 1578 3097 1268 2742 
Q 959 2388 959 1747 
Q 959 1106 1268 751 
Q 1578 397 2138 397 
Q 2388 397 2633 464 
Q 2878 531 3122 666 
L 3122 134 
Q 2881 22 2623 -34 
Q 2366 -91 2075 -91 
Q 1284 -91 818 406 
Q 353 903 353 1747 
Q 353 2603 823 3093 
Q 1294 3584 2113 3584 
Q 2378 3584 2631 3529 
Q 2884 3475 3122 3366 
z
" transform="scale(0.015625)"/>
      </defs>
      <use xlink:href="#DejaVuSans-64"/>
      <use xlink:href="#DejaVuSans-61" x="63.476562"/>
      <use xlink:href="#DejaVuSans-74" x="124.755859"/>
      <use xlink:href="#DejaVuSans-65" x="163.964844"/>
      <use xlink:href="#DejaVuSans-20" x="225.488281"/>
      <use xlink:href="#DejaVuSans-6f" x="257.275391"/>
      <use xlink:href="#DejaVuSans-66" x="318.457031"/>
      <use xlink:href="#DejaVuSans-20" x="353.662109"/>
      <use xlink:href="#DejaVuSans-66" x="385.449219"/>
      <use xlink:href="#DejaVuSans-69" x="420.654297"/>
      <use xlink:href="#DejaVuSans-6c" x="448.4375"/>
      <use xlink:href="#DejaVuSans-65" x="476.220703"/>
      <use xlink:href="#DejaVuSans-20" x="537.744141"/>
      <use xlink:href="#DejaVuSans-6c" x="569.53125"/>
      <use xlink:href="#DejaVuSans-61" x="597.314453"/>
      <use xlink:href="#DejaVuSans-73" x="658.59375"/>
      <use xlink:href="#DejaVuSans-74" x="710.693359"/>
      <use xlink:href="#DejaVuSans-20" x="749.902344"/>
      <use xlink:href="#DejaVuSans-6d" x="781.689453"/>
      <use xlink:href="#DejaVuSans-6f" x="879.101562"/>
      <use xlink:href="#DejaVuSans-64" x="940.283203"/>
      <use xlink:href="#DejaVuSans-69" x="1003.759766"/>
      <use xlink:href="#DejaVuSans-66" x="1031.542969"/>
      <use xlink:href="#DejaVuSans-69" x="1066.748047"/>
      <use xlink:href="#DejaVuSans-63" x="1094.53125"/>
      <use xlink:href="#DejaVuSans-61" x="1149.511719"/>
      <use xlink:href="#DejaVuSans-74" x="1210.791016"/>
      <use xlink:href="#DejaVuSans-69" x="1250"/>
      <use xlink:href="#DejaVuSans-6f" x="1277.783203"/>
      <use xlink:href="#DejaVuSans-6e" x="1338.964844"/>
     </g>
    </g>
   </g>
   <g id="matplotlib.axis_4">
    <g id="ytick_7">
     <g id="line2d_45">
      <g>
       <use xlink:href="#mac250f6f5f" x="72" y="384.48" style="stroke: #000000; stroke-width: 0.8"/>
      </g>
     </g>
     <g id="text_21">
      <!-- 0.0 -->
      <g transform="translate(49.096875 388.279219) scale(0.1 -0.1)">
       <defs>
        <path id="DejaVuSans-2e" d="M 684 794 
L 1344 794 
L 1344 0 
L 684 0 
L 684 794 
z
" transform="scale(0.015625)"/>
       </defs>
       <use xlink:href="#DejaVuSans-30"/>
       <use xlink:href="#DejaVuSans-2e" x="63.623047"/>
       <use xlink:href="#DejaVuSans-30" x="95.410156"/>
      </g>
     </g>
    </g>
    <g id="ytick_8">
     <g id="line2d_46">
      <g>
       <use xlink:href="#mac250f6f5f" x="72" y="354.24" style="stroke: #000000; stroke-width: 0.8"/>
      </g>
     </g>
     <g id="text_22">
      <!-- 0.2 -->
      <g transform="translate(49.096875 358.039219) scale(0.1 -0.1)">
       <use xlink:href="#DejaVuSans-30"/>
       <use xlink:href="#DejaVuSans-2e" x="63.623047"/>
       <use xlink:href="#DejaVuSans-32" x="95.410156"/>
      </g>
     </g>
    </g>
    <g id="ytick_9">
     <g id="line2d_47">
      <g>
       <use xlink:href="#mac250f6f5f" x="72" y="324" style="stroke: #000000; stroke-width: 0.8"/>
      </g>
     </g>
     <g id="text_23">
      <!-- 0.4 -->
      <g transform="translate(49.096875 327.799219) scale(0.1 -0.1)">
       <use xlink:href="#DejaVuSans-30"/>
       <use xlink:href="#DejaVuSans-2e" x="63.623047"/>
       <use xlink:href="#DejaVuSans-34" x="95.410156"/>
      </g>
     </g>
    </g>
    <g id="ytick_10">
     <g id="line2d_48">
      <g>
       <use xlink:href="#mac250f6f5f" x="72" y="293.76" style="stroke: #000000; stroke-width: 0.8"/>
      </g>
     </g>
     <g id="text_24">
      <!-- 0.6 -->
      <g transform="translate(49.096875 297.559219) scale(0.1 -0.1)">
       <use xlink:href="#DejaVuSans-30"/>
       <use xlink:href="#DejaVuSans-2e" x="63.623047"/>
       <use xlink:href="#DejaVuSans-36" x="95.410156"/>
      </g>
     </g>
    </g>
    <g id="ytick_11">
     <g id="line2d_49">
      <g>
       <use xlink:href="#mac250f6f5f" x="72" y="263.52" style="stroke: #000000; stroke-width: 0.8"/>
      </g>
     </g>
     <g id="text_25">
      <!-- 0.8 -->
      <g transform="translate(49.096875 267.319219) scale(0.1 -0.1)">
       <use xlink:href="#DejaVuSans-30"/>
       <use xlink:href="#DejaVuSans-2e" x="63.623047"/>
       <use xlink:href="#DejaVuSans-38" x="95.410156"/>
      </g>
     </g>
    </g>
    <g id="ytick_12">
     <g id="line2d_50">
      <g>
       <use xlink:href="#mac250f6f5f" x="72" y="233.28" style="stroke: #000000; stroke-width: 0.8"/>
      </g>
     </g>
     <g id="text_26">
      <!-- 1.0 -->
      <g transform="translate(49.096875 237.079219) scale(0.1 -0.1)">
       <use xlink:href="#DejaVuSans-31"/>
       <use xlink:href="#DejaVuSans-2e" x="63.623047"/>
       <use xlink:href="#DejaVuSans-30" x="95.410156"/>
      </g>
     </g>
    </g>
    <g id="text_27">
     <!-- fraction of files -->
     <g transform="translate(43.017187 346.303437) rotate(-90) scale(0.1 -0.1)">
      <use xlink:href="#DejaVuSans-66"/>
      <use xlink:href="#DejaVuSans-72" x="35.205078"/>
      <use xlink:href="#DejaVuSans-61" x="76.318359"/>
      <use xlink:href="#DejaVuSans-63" x="137.597656"/>
      <use xlink:href="#DejaVuSans-74" x="192.578125"/>
      <use xlink:href="#DejaVuSans-69" x="231.787109"/>
      <use xlink:href="#DejaVuSans-6f" x="259.570312"/>
      <use xlink:href="#DejaVuSans-6e" x="320.751953"/>
      <use xlink:href="#DejaVuSans-20" x="384.130859"/>
      <use xlink:href="#DejaVuSans-6f" x="415.917969"/>
      <use xlink:href="#DejaVuSans-66" x="477.099609"/>
      <use xlink:href="#DejaVuSans-20" x="512.304688"/>
      <use xlink:href="#DejaVuSans-66" x="544.091797"/>
      <use xlink:href="#DejaVuSans-69" x="579.296875"/>
      <use xlink:href="#DejaVuSans-6c" x="607.080078"/>
      <use xlink:href="#DejaVuSans-65" x="634.863281"/>
      <use xlink:href="#DejaVuSans-73" x="696.386719"/>
     </g>
    </g>
   </g>
   <g id="line2d_51">
    <path d="M 72 233.28 
L 80.422642 384.48 
L 88.845283 233.28 
L 97.267925 233.28 
L 105.690566 233.28 
L 114.113208 233.28 
L 122.535849 233.28 
L 130.958491 233.28 
L 139.381132 384.48 
L 147.803774 233.28 
L 156.226415 233.28 
L 164.649057 233.28 
L 173.071698 233.28 
L 181.49434 233.28 
L 189.916981 233.28 
L 198.339623 233.28 
L 206.762264 384.48 
L 215.184906 271.08 
L 223.607547 233.28 
L 232.030189 254.88 
L 240.45283 319.68 
L 248.875472 250.726154 
L 257.298113 308.88 
L 265.720755 354.24 
L 274.143396 334.08 
L 282.566038 317.28 
L 290.988679 337.23 
L 299.411321 367.68 
L 307.833962 364.047568 
L 316.256604 365.58 
L 324.679245 375.03 
L 333.101887 376.92 
L 341.524528 377.10439 
L 349.94717 384.48 
L 358.369811 377.709851 
L 366.792453 366.152727 
L 375.215094 354.24 
L 383.637736 359.28 
L 392.060377 384.48 
L 400.483019 360.606316 
L 408.90566 384.48 
L 417.328302 380.88 
L 425.750943 382.72186 
L 434.173585 384.48 
L 442.596226 384.48 
L 451.018868 384.48 
L 459.441509 376.157064 
L 467.864151 375.03 
L 476.286792 382.350423 
L 484.709434 379.44 
L 493.132075 382.001311 
L 501.554717 381.394286 
L 509.977358 384.48 
L 518.4 384.48 
" clip-path="url(#pb775e6ca31)" style="fill: none; stroke: #ffa500; stroke-width: 1.5; stroke-linecap: square"/>
   </g>
   <g id="line2d_52">
    <path d="M 72 233.28 
L 80.422642 384.48 
L 88.845283 233.28 
L 97.267925 233.28 
L 105.690566 233.28 
L 114.113208 233.28 
L 122.535849 233.28 
L 130.958491 233.28 
L 139.381132 384.48 
L 147.803774 233.28 
L 156.226415 233.28 
L 164.649057 233.28 
L 173.071698 233.28 
L 181.49434 233.28 
L 189.916981 233.28 
L 198.339623 233.28 
L 206.762264 233.28 
L 215.184906 233.28 
L 223.607547 233.28 
L 232.030189 233.28 
L 240.45283 233.28 
L 248.875472 233.28 
L 257.298113 233.28 
L 265.720755 233.28 
L 274.143396 233.28 
L 282.566038 233.28 
L 290.988679 233.28 
L 299.411321 233.28 
L 307.833962 233.28 
L 316.256604 233.28 
L 324.679245 233.28 
L 333.101887 233.28 
L 341.524528 233.28 
L 349.94717 233.28 
L 358.369811 233.28 
L 366.792453 233.28 
L 375.215094 233.28 
L 383.637736 233.28 
L 392.060377 233.28 
L 400.483019 233.28 
L 408.90566 233.28 
L 417.328302 233.28 
L 425.750943 233.28 
L 434.173585 233.28 
L 442.596226 233.28 
L 451.018868 233.28 
L 459.441509 233.28 
L 467.864151 233.28 
L 476.286792 233.28 
L 484.709434 233.28 
L 493.132075 233.28 
L 501.554717 233.28 
L 509.977358 233.28 
L 518.4 233.28 
" clip-path="url(#pb775e6ca31)" style="fill: none; stroke: #008000; stroke-width: 1.5; stroke-linecap: square"/>
   </g>
   <g id="patch_11">
    <path d="M 72 384.48 
L 72 233.28 
" style="fill: none; stroke: #000000; stroke-width: 0.8; stroke-linejoin: miter; stroke-linecap: square"/>
   </g>
   <g id="patch_12">
    <path d="M 518.4 384.48 
L 518.4 233.28 
" style="fill: none; stroke: #000000; stroke-width: 0.8; stroke-linejoin: miter; stroke-linecap: square"/>
   </g>
   <g id="patch_13">
    <path d="M 72 384.48 
L 518.4 384.48 
" style="fill: none; stroke: #000000; stroke-width: 0.8; stroke-linejoin: miter; stroke-linecap: square"/>
   </g>
   <g id="patch_14">
    <path d="M 72 233.28 
L 518.4 233.28 
" style="fill: none; stroke: #000000; stroke-width: 0.8; stroke-linejoin: miter; stroke-linecap: square"/>
   </g>
   <g id="legend_2">
    <g id="patch_15">
     <path d="M 79 270.63625 
L 228.29375 270.63625 
Q 230.29375 270.63625 230.29375 268.63625 
L 230.29375 240.28 
Q 230.29375 238.28 228.29375 238.28 
L 79 238.28 
Q 77 238.28 77 240.28 
L 77 268.63625 
Q 77 270.63625 79 270.63625 
z
" style="fill: #ffffff; stroke: #cccccc; stroke-linejoin: miter"/>
    </g>
    <g id="patch_16">
     <path d="M 81 249.878438 
L 101 249.878438 
L 101 242.878438 
L 81 242.878438 
z
" style="fill: #008000; stroke: #008000; stroke-linejoin: miter"/>
    </g>
    <g id="text_28">
     <!-- Awkward version 1 or 2 -->
     <g transform="translate(109 249.878438) scale(0.1 -0.1)">
      <use xlink:href="#DejaVuSans-41"/>
      <use xlink:href="#DejaVuSans-77" x="64.408203"/>
      <use xlink:href="#DejaVuSans-6b" x="146.195312"/>
      <use xlink:href="#DejaVuSans-77" x="204.105469"/>
      <use xlink:href="#DejaVuSans-61" x="285.892578"/>
      <use xlink:href="#DejaVuSans-72" x="347.171875"/>
      <use xlink:href="#DejaVuSans-64" x="386.535156"/>
      <use xlink:href="#DejaVuSans-20" x="450.011719"/>
      <use xlink:href="#DejaVuSans-76" x="481.798828"/>
      <use xlink:href="#DejaVuSans-65" x="540.978516"/>
      <use xlink:href="#DejaVuSans-72" x="602.501953"/>
      <use xlink:href="#DejaVuSans-73" x="643.615234"/>
      <use xlink:href="#DejaVuSans-69" x="695.714844"/>
      <use xlink:href="#DejaVuSans-6f" x="723.498047"/>
      <use xlink:href="#DejaVuSans-6e" x="784.679688"/>
      <use xlink:href="#DejaVuSans-20" x="848.058594"/>
      <use xlink:href="#DejaVuSans-31" x="879.845703"/>
      <use xlink:href="#DejaVuSans-20" x="943.46875"/>
      <use xlink:href="#DejaVuSans-6f" x="975.255859"/>
      <use xlink:href="#DejaVuSans-72" x="1036.4375"/>
      <use xlink:href="#DejaVuSans-20" x="1077.550781"/>
      <use xlink:href="#DejaVuSans-32" x="1109.337891"/>
     </g>
    </g>
    <g id="patch_17">
     <path d="M 81 264.556563 
L 101 264.556563 
L 101 257.556563 
L 81 257.556563 
z
" style="fill: #ffa500; stroke: #ffa500; stroke-linejoin: miter"/>
    </g>
    <g id="text_29">
     <!-- Awkward version 0 -->
     <g transform="translate(109 264.556563) scale(0.1 -0.1)">
      <use xlink:href="#DejaVuSans-41"/>
      <use xlink:href="#DejaVuSans-77" x="64.408203"/>
      <use xlink:href="#DejaVuSans-6b" x="146.195312"/>
      <use xlink:href="#DejaVuSans-77" x="204.105469"/>
      <use xlink:href="#DejaVuSans-61" x="285.892578"/>
      <use xlink:href="#DejaVuSans-72" x="347.171875"/>
      <use xlink:href="#DejaVuSans-64" x="386.535156"/>
      <use xlink:href="#DejaVuSans-20" x="450.011719"/>
      <use xlink:href="#DejaVuSans-76" x="481.798828"/>
      <use xlink:href="#DejaVuSans-65" x="540.978516"/>
      <use xlink:href="#DejaVuSans-72" x="602.501953"/>
      <use xlink:href="#DejaVuSans-73" x="643.615234"/>
      <use xlink:href="#DejaVuSans-69" x="695.714844"/>
      <use xlink:href="#DejaVuSans-6f" x="723.498047"/>
      <use xlink:href="#DejaVuSans-6e" x="784.679688"/>
      <use xlink:href="#DejaVuSans-20" x="848.058594"/>
      <use xlink:href="#DejaVuSans-30" x="879.845703"/>
     </g>
    </g>
   </g>
  </g>
 </g>
 <defs>
  <clipPath id="p1e01ddecc1">
   <rect x="72" y="51.84" width="446.4" height="151.2"/>
  </clipPath>
  <clipPath id="pb775e6ca31">
   <rect x="72" y="233.28" width="446.4" height="151.2"/>
  </clipPath>
 </defs>
</svg>
