<?xml version="1.0" encoding="UTF-8" standalone="no"?>
<svg
   width="479.07037pt"
   height="252.88959pt"
   viewBox="0 0 479.07039 252.88958"
   version="1.1"
   id="svg335"
   sodipodi:docname="github-ast-uproot-array-function-library-argument.svg"
   inkscape:version="1.1.2 (0a00cf5339, 2022-02-04)"
   xmlns:inkscape="http://www.inkscape.org/namespaces/inkscape"
   xmlns:sodipodi="http://sodipodi.sourceforge.net/DTD/sodipodi-0.dtd"
   xmlns:xlink="http://www.w3.org/1999/xlink"
   xmlns="http://www.w3.org/2000/svg"
   xmlns:svg="http://www.w3.org/2000/svg"
   xmlns:rdf="http://www.w3.org/1999/02/22-rdf-syntax-ns#"
   xmlns:cc="http://creativecommons.org/ns#"
   xmlns:dc="http://purl.org/dc/elements/1.1/">
  <sodipodi:namedview
     id="namedview337"
     pagecolor="#ffffff"
     bordercolor="#666666"
     borderopacity="1.0"
     inkscape:pageshadow="2"
     inkscape:pageopacity="0.0"
     inkscape:pagecheckerboard="0"
     inkscape:document-units="pt"
     showgrid="false"
     fit-margin-top="20"
     fit-margin-left="20"
     fit-margin-right="20"
     fit-margin-bottom="20"
     inkscape:zoom="1.6167534"
     inkscape:cx="287.61343"
     inkscape:cy="183.08296"
     inkscape:window-width="2554"
     inkscape:window-height="1365"
     inkscape:window-x="1920"
     inkscape:window-y="32"
     inkscape:window-maximized="1"
     inkscape:current-layer="svg335" />
  <metadata
     id="metadata2">
    <rdf:RDF>
      <cc:Work>
        <dc:type
           rdf:resource="http://purl.org/dc/dcmitype/StillImage" />
        <dc:date>2023-04-18T18:21:26.143767</dc:date>
        <dc:format>image/svg+xml</dc:format>
        <dc:creator>
          <cc:Agent>
            <dc:title>Matplotlib v3.7.1, https://matplotlib.org/</dc:title>
          </cc:Agent>
        </dc:creator>
      </cc:Work>
    </rdf:RDF>
  </metadata>
  <defs
     id="defs6">
    <style
       type="text/css"
       id="style4">*{stroke-linejoin: round; stroke-linecap: butt}</style>
  </defs>
  <g
     id="axes_1"
     transform="translate(-19.60367,-48.0832)">
    <g
       id="patch_2">
      <path
         d="m 342.6048,174.528 c 0,-11.36017 -1.8186,-22.64743 -5.38665,-33.43271 -3.56806,-10.78529 -8.83979,-20.93016 -15.61478,-30.04898 -6.77499,-9.11882 -14.96629,-17.094549 -24.26252,-23.623986 -9.29622,-6.529437 -19.57806,-11.528784 -30.45465,-14.807993 -10.87659,-3.279209 -22.20833,-4.796193 -33.56446,-4.493285 -11.35612,0.302909 -22.59088,2.421823 -33.27719,6.276192 -10.68631,3.854368 -20.68702,9.394724 -29.62194,16.410451 -8.93493,7.015727 -16.68941,15.416781 -22.96865,24.883811 -6.27924,9.46702 -11.00265,19.8785 -13.99068,30.83866 -2.98803,10.96016 -4.20232,22.32832 -3.59672,33.67233 0.6056,11.34401 3.02333,22.51828 7.16126,33.09802 4.13794,10.57973 9.94299,20.42916 17.19446,29.17384 7.25148,8.74468 15.85631,16.27239 25.4874,22.29697 9.63109,6.02458 20.16482,10.4687 31.20075,13.16342 11.03593,2.69473 22.43243,3.60547 33.75626,2.6976 11.32383,-0.90786 22.42966,-3.62268 32.8953,-8.04125 L 236.16,174.528 Z"
         style="fill:#d3d3d3"
         id="path11" />
    </g>
    <g
       id="patch_3">
      <path
         d="m 277.56199,272.59109 c 12.29548,-5.19111 23.50566,-12.64869 33.04482,-21.98308 9.53916,-9.33439 17.23822,-20.38012 22.69489,-32.56007 L 236.16,174.528 Z"
         style="fill:#ffa500"
         id="path14" />
    </g>
    <g
       id="patch_4">
      <path
         d="m 333.3017,218.04794 c 1.92917,-4.30614 3.56988,-8.73579 4.91127,-13.25964 1.3414,-4.52385 2.3805,-9.13189 3.11044,-13.79361 L 236.16,174.528 Z"
         style="fill:#008000"
         id="path17" />
    </g>
    <g
       id="patch_5">
      <path
         d="m 341.32341,190.99469 c 0.41128,-2.62657 0.724,-5.26763 0.93753,-7.91761 0.21352,-2.64999 0.32769,-5.30704 0.34226,-7.96558 L 236.16,174.528 Z"
         style="fill:#add8e6"
         id="path20" />
    </g>
    <g
       id="patch_6">
      <path
         d="m 342.6032,175.1115 c 5.3e-4,-0.0973 9.3e-4,-0.1945 10e-4,-0.29176 2.7e-4,-0.0973 4e-4,-0.1945 4e-4,-0.29176 l -106.4448,2e-5 z"
         style="fill:#ff00ff"
         id="path23" />
    </g>
    <g
       id="matplotlib.axis_1" />
    <g
       id="matplotlib.axis_2" />
    <g
       id="text_1">
      <!-- no library argument -->
      <g
         transform="matrix(0.1,0,0,-0.1,38.695858,106.96831)"
         id="g82">
        <defs
           id="defs42">
          <path
             id="DejaVuSans-6e"
             d="M 3513,2113 V 0 h -575 v 2094 q 0,497 -194,743 -194,247 -581,247 -466,0 -735,-297 -269,-296 -269,-809 V 0 H 581 v 3500 h 578 v -544 q 207,316 486,472 280,156 646,156 603,0 912,-373 310,-373 310,-1098 z"
             transform="scale(0.015625)" />
          <path
             id="DejaVuSans-6f"
             d="m 1959,3097 q -462,0 -731,-361 -269,-361 -269,-989 0,-628 267,-989 268,-361 733,-361 460,0 728,362 269,363 269,988 0,622 -269,986 -268,364 -728,364 z m 0,487 q 750,0 1178,-488 429,-487 429,-1349 Q 3566,888 3137,398 2709,-91 1959,-91 1206,-91 779,398 353,888 353,1747 q 0,862 426,1349 427,488 1180,488 z"
             transform="scale(0.015625)" />
          <path
             id="DejaVuSans-20"
             transform="scale(0.015625)"
             d="" />
          <path
             id="DejaVuSans-6c"
             d="m 603,4863 h 575 V 0 H 603 Z"
             transform="scale(0.015625)" />
          <path
             id="DejaVuSans-69"
             d="m 603,3500 h 575 V 0 H 603 Z m 0,1363 h 575 V 4134 H 603 Z"
             transform="scale(0.015625)" />
          <path
             id="DejaVuSans-62"
             d="m 3116,1747 q 0,634 -261,995 -261,361 -717,361 -457,0 -718,-361 -261,-361 -261,-995 0,-634 261,-995 261,-361 718,-361 456,0 717,361 261,361 261,995 z M 1159,2969 q 182,312 458,463 277,152 661,152 638,0 1036,-506 399,-506 399,-1331 Q 3713,922 3314,415 2916,-91 2278,-91 1894,-91 1617,61 1341,213 1159,525 V 0 H 581 v 4863 h 578 z"
             transform="scale(0.015625)" />
          <path
             id="DejaVuSans-72"
             d="m 2631,2963 q -97,56 -211,82 -114,27 -251,27 -488,0 -749,-317 -261,-317 -261,-911 V 0 H 581 v 3500 h 578 v -544 q 182,319 472,473 291,155 707,155 59,0 131,-8 72,-7 159,-23 z"
             transform="scale(0.015625)" />
          <path
             id="DejaVuSans-61"
             d="m 2194,1759 q -697,0 -966,-159 -269,-159 -269,-544 0,-306 202,-486 202,-179 548,-179 479,0 768,339 289,339 289,901 v 128 z m 1147,238 V 0 H 2766 V 531 Q 2569,213 2275,61 1981,-91 1556,-91 q -537,0 -855,302 -317,302 -317,808 0,590 395,890 396,300 1180,300 h 807 v 57 q 0,397 -261,614 -261,217 -733,217 -300,0 -585,-72 -284,-72 -546,-216 v 532 q 315,122 612,182 297,61 578,61 760,0 1135,-394 375,-393 375,-1193 z"
             transform="scale(0.015625)" />
          <path
             id="DejaVuSans-79"
             d="m 2059,-325 q -243,-625 -475,-815 -231,-191 -618,-191 H 506 v 481 h 338 q 237,0 368,113 132,112 291,531 L 1606,56 191,3500 H 800 L 1894,763 2988,3500 h 609 z"
             transform="scale(0.015625)" />
          <path
             id="DejaVuSans-67"
             d="m 2906,1791 q 0,625 -258,968 -257,344 -723,344 -462,0 -720,-344 -258,-343 -258,-968 0,-622 258,-966 258,-344 720,-344 466,0 723,344 258,344 258,966 z M 3481,434 q 0,-893 -397,-1329 -396,-436 -1215,-436 -303,0 -572,45 -269,45 -522,139 v 559 q 253,-137 500,-202 247,-66 503,-66 566,0 847,295 281,295 281,892 V 616 Q 2728,306 2450,153 2172,0 1784,0 1141,0 747,490 353,981 353,1791 q 0,812 394,1302 394,491 1037,491 388,0 666,-153 278,-153 456,-462 v 531 h 575 z"
             transform="scale(0.015625)" />
          <path
             id="DejaVuSans-75"
             d="m 544,1381 v 2119 h 575 V 1403 q 0,-497 193,-746 194,-248 582,-248 465,0 735,297 271,297 271,810 v 1984 h 575 V 0 H 2900 V 538 Q 2691,219 2414,64 2138,-91 1772,-91 1169,-91 856,284 544,659 544,1381 Z m 1447,2203 z"
             transform="scale(0.015625)" />
          <path
             id="DejaVuSans-6d"
             d="m 3328,2828 q 216,388 516,572 300,184 706,184 547,0 844,-383 297,-382 297,-1088 V 0 h -578 v 2094 q 0,503 -179,746 -178,244 -543,244 -447,0 -707,-297 -259,-296 -259,-809 V 0 h -578 v 2094 q 0,506 -178,748 -178,242 -550,242 -441,0 -701,-298 -259,-298 -259,-808 V 0 H 581 v 3500 h 578 v -544 q 197,322 472,475 275,153 653,153 382,0 649,-194 267,-193 395,-562 z"
             transform="scale(0.015625)" />
          <path
             id="DejaVuSans-65"
             d="M 3597,1894 V 1613 H 953 q 38,-594 358,-905 320,-311 892,-311 331,0 642,81 311,81 618,244 V 178 Q 3153,47 2828,-22 2503,-91 2169,-91 1331,-91 842,396 353,884 353,1716 q 0,859 464,1363 464,505 1252,505 706,0 1117,-455 411,-454 411,-1235 z m -575,169 q -6,471 -264,752 -258,282 -683,282 -481,0 -770,-272 -289,-272 -333,-766 z"
             transform="scale(0.015625)" />
          <path
             id="DejaVuSans-74"
             d="M 1172,4494 V 3500 H 2356 V 3053 H 1172 V 1153 q 0,-428 117,-550 117,-122 477,-122 h 590 V 0 H 1766 Q 1100,0 847,248 594,497 594,1153 V 3053 H 172 v 447 h 422 v 994 z"
             transform="scale(0.015625)" />
        </defs>
        <use
           xlink:href="#DejaVuSans-6e"
           id="use44"
           x="0"
           y="0"
           width="100%"
           height="100%" />
        <use
           xlink:href="#DejaVuSans-6f"
           x="63.378906"
           id="use46"
           y="0"
           width="100%"
           height="100%" />
        <use
           xlink:href="#DejaVuSans-20"
           x="124.56055"
           id="use48"
           y="0"
           width="100%"
           height="100%" />
        <use
           xlink:href="#DejaVuSans-6c"
           x="156.34766"
           id="use50"
           y="0"
           width="100%"
           height="100%" />
        <use
           xlink:href="#DejaVuSans-69"
           x="184.13086"
           id="use52"
           y="0"
           width="100%"
           height="100%" />
        <use
           xlink:href="#DejaVuSans-62"
           x="211.91406"
           id="use54"
           y="0"
           width="100%"
           height="100%" />
        <use
           xlink:href="#DejaVuSans-72"
           x="275.39062"
           id="use56"
           y="0"
           width="100%"
           height="100%" />
        <use
           xlink:href="#DejaVuSans-61"
           x="316.50391"
           id="use58"
           y="0"
           width="100%"
           height="100%" />
        <use
           xlink:href="#DejaVuSans-72"
           x="377.7832"
           id="use60"
           y="0"
           width="100%"
           height="100%" />
        <use
           xlink:href="#DejaVuSans-79"
           x="418.89648"
           id="use62"
           y="0"
           width="100%"
           height="100%" />
        <use
           xlink:href="#DejaVuSans-20"
           x="478.07617"
           id="use64"
           y="0"
           width="100%"
           height="100%" />
        <use
           xlink:href="#DejaVuSans-61"
           x="509.86328"
           id="use66"
           y="0"
           width="100%"
           height="100%" />
        <use
           xlink:href="#DejaVuSans-72"
           x="571.14258"
           id="use68"
           y="0"
           width="100%"
           height="100%" />
        <use
           xlink:href="#DejaVuSans-67"
           x="610.50586"
           id="use70"
           y="0"
           width="100%"
           height="100%" />
        <use
           xlink:href="#DejaVuSans-75"
           x="673.98242"
           id="use72"
           y="0"
           width="100%"
           height="100%" />
        <use
           xlink:href="#DejaVuSans-6d"
           x="737.36133"
           id="use74"
           y="0"
           width="100%"
           height="100%" />
        <use
           xlink:href="#DejaVuSans-65"
           x="834.77344"
           id="use76"
           y="0"
           width="100%"
           height="100%" />
        <use
           xlink:href="#DejaVuSans-6e"
           x="896.29688"
           id="use78"
           y="0"
           width="100%"
           height="100%" />
        <use
           xlink:href="#DejaVuSans-74"
           x="959.67578"
           id="use80"
           y="0"
           width="100%"
           height="100%" />
      </g>
      <!-- (defaults to "ak") -->
      <g
         transform="matrix(0.1,0,0,-0.1,52.870858,118.16613)"
         id="g129">
        <defs
           id="defs91">
          <path
             id="DejaVuSans-28"
             d="m 1984,4856 q -418,-718 -622,-1422 -203,-703 -203,-1425 0,-721 205,-1429 205,-708 620,-1424 h -500 q -468,735 -701,1444 -233,709 -233,1409 0,697 231,1403 232,707 703,1444 z"
             transform="scale(0.015625)" />
          <path
             id="DejaVuSans-64"
             d="m 2906,2969 v 1894 h 575 V 0 H 2906 V 525 Q 2725,213 2448,61 2172,-91 1784,-91 1150,-91 751,415 353,922 353,1747 q 0,825 398,1331 399,506 1033,506 388,0 664,-152 277,-151 458,-463 z M 947,1747 q 0,-634 261,-995 261,-361 717,-361 456,0 718,361 263,361 263,995 0,634 -263,995 -262,361 -718,361 -456,0 -717,-361 -261,-361 -261,-995 z"
             transform="scale(0.015625)" />
          <path
             id="DejaVuSans-66"
             d="m 2375,4863 v -479 h -550 q -309,0 -430,-125 -120,-125 -120,-450 v -309 h 947 V 3053 H 1275 V 0 H 697 V 3053 H 147 v 447 h 550 v 244 q 0,584 272,851 272,268 862,268 z"
             transform="scale(0.015625)" />
          <path
             id="DejaVuSans-73"
             d="m 2834,3397 v -544 q -243,125 -506,187 -262,63 -544,63 -428,0 -642,-131 -214,-131 -214,-394 0,-200 153,-314 153,-114 616,-217 l 197,-44 q 612,-131 870,-370 258,-239 258,-667 0,-488 -386,-773 Q 2250,-91 1575,-91 1294,-91 989,-36 684,19 347,128 v 594 q 319,-166 628,-249 309,-82 613,-82 406,0 624,139 219,139 219,392 0,234 -158,359 -157,125 -692,241 l -200,47 q -534,112 -772,345 -237,233 -237,639 0,494 350,762 350,269 994,269 318,0 599,-47 282,-46 519,-140 z"
             transform="scale(0.015625)" />
          <path
             id="DejaVuSans-22"
             d="M 1147,4666 V 2931 H 616 v 1735 z m 1181,0 V 2931 h -531 v 1735 z"
             transform="scale(0.015625)" />
          <path
             id="DejaVuSans-6b"
             d="m 581,4863 h 578 V 1991 l 1716,1509 h 734 L 1753,1863 3688,0 H 2938 L 1159,1709 V 0 H 581 Z"
             transform="scale(0.015625)" />
          <path
             id="DejaVuSans-29"
             d="m 513,4856 h 500 q 468,-737 701,-1444 233,-706 233,-1403 0,-700 -233,-1409 -233,-709 -701,-1444 H 513 q 415,716 620,1424 205,708 205,1429 0,722 -205,1425 -205,704 -620,1422 z"
             transform="scale(0.015625)" />
        </defs>
        <use
           xlink:href="#DejaVuSans-28"
           id="use93"
           x="0"
           y="0"
           width="100%"
           height="100%" />
        <use
           xlink:href="#DejaVuSans-64"
           x="39.013672"
           id="use95"
           y="0"
           width="100%"
           height="100%" />
        <use
           xlink:href="#DejaVuSans-65"
           x="102.49023"
           id="use97"
           y="0"
           width="100%"
           height="100%" />
        <use
           xlink:href="#DejaVuSans-66"
           x="164.01367"
           id="use99"
           y="0"
           width="100%"
           height="100%" />
        <use
           xlink:href="#DejaVuSans-61"
           x="199.21875"
           id="use101"
           y="0"
           width="100%"
           height="100%" />
        <use
           xlink:href="#DejaVuSans-75"
           x="260.49805"
           id="use103"
           y="0"
           width="100%"
           height="100%" />
        <use
           xlink:href="#DejaVuSans-6c"
           x="323.87695"
           id="use105"
           y="0"
           width="100%"
           height="100%" />
        <use
           xlink:href="#DejaVuSans-74"
           x="351.66016"
           id="use107"
           y="0"
           width="100%"
           height="100%" />
        <use
           xlink:href="#DejaVuSans-73"
           x="390.86914"
           id="use109"
           y="0"
           width="100%"
           height="100%" />
        <use
           xlink:href="#DejaVuSans-20"
           x="442.96875"
           id="use111"
           y="0"
           width="100%"
           height="100%" />
        <use
           xlink:href="#DejaVuSans-74"
           x="474.75586"
           id="use113"
           y="0"
           width="100%"
           height="100%" />
        <use
           xlink:href="#DejaVuSans-6f"
           x="513.96484"
           id="use115"
           y="0"
           width="100%"
           height="100%" />
        <use
           xlink:href="#DejaVuSans-20"
           x="575.14648"
           id="use117"
           y="0"
           width="100%"
           height="100%" />
        <use
           xlink:href="#DejaVuSans-22"
           x="606.93359"
           id="use119"
           y="0"
           width="100%"
           height="100%" />
        <use
           xlink:href="#DejaVuSans-61"
           x="652.92969"
           id="use121"
           y="0"
           width="100%"
           height="100%" />
        <use
           xlink:href="#DejaVuSans-6b"
           x="714.20898"
           id="use123"
           y="0"
           width="100%"
           height="100%" />
        <use
           xlink:href="#DejaVuSans-22"
           x="772.11914"
           id="use125"
           y="0"
           width="100%"
           height="100%" />
        <use
           xlink:href="#DejaVuSans-29"
           x="818.11523"
           id="use127"
           y="0"
           width="100%"
           height="100%" />
      </g>
    </g>
    <g
       id="text_2">
      <!-- 81% -->
      <g
         transform="matrix(0.1,0,0,-0.1,171.8231,141.98547)"
         id="g143">
        <defs
           id="defs135">
          <path
             id="DejaVuSans-38"
             d="m 2034,2216 q -450,0 -708,-241 -257,-241 -257,-662 0,-422 257,-663 258,-241 708,-241 450,0 709,242 260,243 260,662 0,421 -258,662 -257,241 -711,241 z m -631,268 q -406,100 -633,378 -226,279 -226,679 0,559 398,884 399,325 1092,325 697,0 1094,-325 397,-325 397,-884 0,-400 -227,-679 -226,-278 -629,-378 456,-106 710,-416 255,-309 255,-755 Q 3634,634 3220,271 2806,-91 2034,-91 1263,-91 848,271 434,634 434,1313 q 0,446 256,755 257,310 713,416 z m -231,997 q 0,-362 226,-565 227,-203 636,-203 407,0 636,203 230,203 230,565 0,363 -230,566 -229,203 -636,203 -409,0 -636,-203 -226,-203 -226,-566 z"
             transform="scale(0.015625)" />
          <path
             id="DejaVuSans-31"
             d="M 794,531 H 1825 V 4091 L 703,3866 v 575 l 1116,225 h 631 V 531 H 3481 V 0 H 794 Z"
             transform="scale(0.015625)" />
          <path
             id="DejaVuSans-25"
             d="m 4653,2053 q -272,0 -427,-231 -154,-231 -154,-644 0,-406 154,-639 155,-233 427,-233 266,0 420,233 155,233 155,639 0,410 -155,642 -154,233 -420,233 z m 0,397 q 494,0 784,-344 291,-343 291,-928 0,-584 -292,-927 -292,-342 -783,-342 -500,0 -791,342 -290,343 -290,927 0,588 292,930 292,342 789,342 z M 1428,4353 q -269,0 -424,-233 -154,-232 -154,-639 0,-412 153,-644 153,-231 425,-231 272,0 426,231 155,232 155,644 0,403 -156,637 -156,235 -425,235 z m 2822,397 h 500 L 1831,-91 h -500 z m -2822,0 q 494,0 787,-342 294,-342 294,-927 0,-590 -292,-931 -292,-341 -789,-341 -497,0 -786,342 -289,343 -289,930 0,582 290,925 291,344 785,344 z"
             transform="scale(0.015625)" />
        </defs>
        <use
           xlink:href="#DejaVuSans-38"
           id="use137"
           x="0"
           y="0"
           width="100%"
           height="100%" />
        <use
           xlink:href="#DejaVuSans-31"
           x="63.623047"
           id="use139"
           y="0"
           width="100%"
           height="100%" />
        <use
           xlink:href="#DejaVuSans-25"
           x="127.24609"
           id="use141"
           y="0"
           width="100%"
           height="100%" />
      </g>
    </g>
    <g
       id="text_3">
      <!-- library="np" -->
      <g
         transform="matrix(0.1,0,0,-0.1,318.05149,260.97539)"
         id="g174">
        <defs
           id="defs148">
          <path
             id="DejaVuSans-3d"
             d="M 678,2906 H 4684 V 2381 H 678 Z m 0,-1275 H 4684 V 1100 H 678 Z"
             transform="scale(0.015625)" />
          <path
             id="DejaVuSans-70"
             d="M 1159,525 V -1331 H 581 v 4831 h 578 v -531 q 182,312 458,463 277,152 661,152 638,0 1036,-506 399,-506 399,-1331 0,-825 -399,-1332 -398,-506 -1036,-506 -384,0 -661,152 -276,152 -458,464 z m 1957,1222 q 0,634 -261,995 -261,361 -717,361 -457,0 -718,-361 -261,-361 -261,-995 0,-634 261,-995 261,-361 718,-361 456,0 717,361 261,361 261,995 z"
             transform="scale(0.015625)" />
        </defs>
        <use
           xlink:href="#DejaVuSans-6c"
           id="use150"
           x="0"
           y="0"
           width="100%"
           height="100%" />
        <use
           xlink:href="#DejaVuSans-69"
           x="27.783203"
           id="use152"
           y="0"
           width="100%"
           height="100%" />
        <use
           xlink:href="#DejaVuSans-62"
           x="55.566406"
           id="use154"
           y="0"
           width="100%"
           height="100%" />
        <use
           xlink:href="#DejaVuSans-72"
           x="119.04297"
           id="use156"
           y="0"
           width="100%"
           height="100%" />
        <use
           xlink:href="#DejaVuSans-61"
           x="160.15625"
           id="use158"
           y="0"
           width="100%"
           height="100%" />
        <use
           xlink:href="#DejaVuSans-72"
           x="221.43555"
           id="use160"
           y="0"
           width="100%"
           height="100%" />
        <use
           xlink:href="#DejaVuSans-79"
           x="262.54883"
           id="use162"
           y="0"
           width="100%"
           height="100%" />
        <use
           xlink:href="#DejaVuSans-3d"
           x="321.72852"
           id="use164"
           y="0"
           width="100%"
           height="100%" />
        <use
           xlink:href="#DejaVuSans-22"
           x="405.51758"
           id="use166"
           y="0"
           width="100%"
           height="100%" />
        <use
           xlink:href="#DejaVuSans-6e"
           x="451.51367"
           id="use168"
           y="0"
           width="100%"
           height="100%" />
        <use
           xlink:href="#DejaVuSans-70"
           x="514.89258"
           id="use170"
           y="0"
           width="100%"
           height="100%" />
        <use
           xlink:href="#DejaVuSans-22"
           x="578.36914"
           id="use172"
           y="0"
           width="100%"
           height="100%" />
      </g>
    </g>
    <g
       id="text_4">
      <!-- 12% -->
      <g
         transform="matrix(0.1,0,0,-0.1,269.7148,222.93538)"
         id="g186">
        <defs
           id="defs178">
          <path
             id="DejaVuSans-32"
             d="M 1228,531 H 3431 V 0 H 469 v 531 q 359,372 979,998 621,627 780,809 303,340 423,576 121,236 121,464 0,372 -261,606 -261,235 -680,235 -297,0 -627,-103 -329,-103 -704,-313 v 638 q 381,153 712,231 332,78 607,78 725,0 1156,-363 431,-362 431,-968 0,-288 -108,-546 -107,-257 -392,-607 -78,-91 -497,-524 Q 1991,1309 1228,531 Z"
             transform="scale(0.015625)" />
        </defs>
        <use
           xlink:href="#DejaVuSans-31"
           id="use180"
           x="0"
           y="0"
           width="100%"
           height="100%" />
        <use
           xlink:href="#DejaVuSans-32"
           x="63.623047"
           id="use182"
           y="0"
           width="100%"
           height="100%" />
        <use
           xlink:href="#DejaVuSans-25"
           x="127.24609"
           id="use184"
           y="0"
           width="100%"
           height="100%" />
      </g>
    </g>
    <g
       id="text_5">
      <!-- library="pd" -->
      <g
         transform="matrix(0.1,0,0,-0.1,348.41827,210.57371)"
         id="g213">
        <use
           xlink:href="#DejaVuSans-6c"
           id="use189"
           x="0"
           y="0"
           width="100%"
           height="100%" />
        <use
           xlink:href="#DejaVuSans-69"
           x="27.783203"
           id="use191"
           y="0"
           width="100%"
           height="100%" />
        <use
           xlink:href="#DejaVuSans-62"
           x="55.566406"
           id="use193"
           y="0"
           width="100%"
           height="100%" />
        <use
           xlink:href="#DejaVuSans-72"
           x="119.04297"
           id="use195"
           y="0"
           width="100%"
           height="100%" />
        <use
           xlink:href="#DejaVuSans-61"
           x="160.15625"
           id="use197"
           y="0"
           width="100%"
           height="100%" />
        <use
           xlink:href="#DejaVuSans-72"
           x="221.43555"
           id="use199"
           y="0"
           width="100%"
           height="100%" />
        <use
           xlink:href="#DejaVuSans-79"
           x="262.54883"
           id="use201"
           y="0"
           width="100%"
           height="100%" />
        <use
           xlink:href="#DejaVuSans-3d"
           x="321.72852"
           id="use203"
           y="0"
           width="100%"
           height="100%" />
        <use
           xlink:href="#DejaVuSans-22"
           x="405.51758"
           id="use205"
           y="0"
           width="100%"
           height="100%" />
        <use
           xlink:href="#DejaVuSans-70"
           x="451.51367"
           id="use207"
           y="0"
           width="100%"
           height="100%" />
        <use
           xlink:href="#DejaVuSans-64"
           x="514.99023"
           id="use209"
           y="0"
           width="100%"
           height="100%" />
        <use
           xlink:href="#DejaVuSans-22"
           x="578.4668"
           id="use211"
           y="0"
           width="100%"
           height="100%" />
      </g>
    </g>
    <g
       id="text_6">
      <!--  4% -->
      <g
         transform="matrix(0.1,0,0,-0.1,287.87069,195.44356)"
         id="g225">
        <defs
           id="defs217">
          <path
             id="DejaVuSans-34"
             d="M 2419,4116 825,1625 h 1594 z m -166,550 h 794 V 1625 h 666 V 1100 H 3047 V 0 H 2419 V 1100 H 313 v 609 z"
             transform="scale(0.015625)" />
        </defs>
        <use
           xlink:href="#DejaVuSans-20"
           id="use219"
           x="0"
           y="0"
           width="100%"
           height="100%" />
        <use
           xlink:href="#DejaVuSans-34"
           x="31.787109"
           id="use221"
           y="0"
           width="100%"
           height="100%" />
        <use
           xlink:href="#DejaVuSans-25"
           x="95.410156"
           id="use223"
           y="0"
           width="100%"
           height="100%" />
      </g>
    </g>
    <g
       id="text_7">
      <!-- library="ak" -->
      <g
         transform="matrix(0.1,0,0,-0.1,352.87103,186.69136)"
         id="g252">
        <use
           xlink:href="#DejaVuSans-6c"
           id="use228"
           x="0"
           y="0"
           width="100%"
           height="100%" />
        <use
           xlink:href="#DejaVuSans-69"
           x="27.783203"
           id="use230"
           y="0"
           width="100%"
           height="100%" />
        <use
           xlink:href="#DejaVuSans-62"
           x="55.566406"
           id="use232"
           y="0"
           width="100%"
           height="100%" />
        <use
           xlink:href="#DejaVuSans-72"
           x="119.04297"
           id="use234"
           y="0"
           width="100%"
           height="100%" />
        <use
           xlink:href="#DejaVuSans-61"
           x="160.15625"
           id="use236"
           y="0"
           width="100%"
           height="100%" />
        <use
           xlink:href="#DejaVuSans-72"
           x="221.43555"
           id="use238"
           y="0"
           width="100%"
           height="100%" />
        <use
           xlink:href="#DejaVuSans-79"
           x="262.54883"
           id="use240"
           y="0"
           width="100%"
           height="100%" />
        <use
           xlink:href="#DejaVuSans-3d"
           x="321.72852"
           id="use242"
           y="0"
           width="100%"
           height="100%" />
        <use
           xlink:href="#DejaVuSans-22"
           x="405.51758"
           id="use244"
           y="0"
           width="100%"
           height="100%" />
        <use
           xlink:href="#DejaVuSans-61"
           x="451.51367"
           id="use246"
           y="0"
           width="100%"
           height="100%" />
        <use
           xlink:href="#DejaVuSans-6b"
           x="512.79297"
           id="use248"
           y="0"
           width="100%"
           height="100%" />
        <use
           xlink:href="#DejaVuSans-22"
           x="570.70312"
           id="use250"
           y="0"
           width="100%"
           height="100%" />
      </g>
    </g>
    <g
       id="text_8">
      <!--  2% -->
      <g
         transform="matrix(0.1,0,0,-0.1,290.29947,182.41682)"
         id="g261">
        <use
           xlink:href="#DejaVuSans-20"
           id="use255"
           x="0"
           y="0"
           width="100%"
           height="100%" />
        <use
           xlink:href="#DejaVuSans-32"
           x="31.787109"
           id="use257"
           y="0"
           width="100%"
           height="100%" />
        <use
           xlink:href="#DejaVuSans-25"
           x="95.410156"
           id="use259"
           y="0"
           width="100%"
           height="100%" />
      </g>
    </g>
    <g
       id="text_9">
      <!-- library=something else... -->
      <g
         transform="matrix(0.1,0,0,-0.1,353.24884,177.60829)"
         id="g318">
        <defs
           id="defs266">
          <path
             id="DejaVuSans-68"
             d="M 3513,2113 V 0 h -575 v 2094 q 0,497 -194,743 -194,247 -581,247 -466,0 -735,-297 -269,-296 -269,-809 V 0 H 581 v 4863 h 578 V 2956 q 207,316 486,472 280,156 646,156 603,0 912,-373 310,-373 310,-1098 z"
             transform="scale(0.015625)" />
          <path
             id="DejaVuSans-2e"
             d="m 684,794 h 660 V 0 H 684 Z"
             transform="scale(0.015625)" />
        </defs>
        <use
           xlink:href="#DejaVuSans-6c"
           id="use268"
           x="0"
           y="0"
           width="100%"
           height="100%" />
        <use
           xlink:href="#DejaVuSans-69"
           x="27.783203"
           id="use270"
           y="0"
           width="100%"
           height="100%" />
        <use
           xlink:href="#DejaVuSans-62"
           x="55.566406"
           id="use272"
           y="0"
           width="100%"
           height="100%" />
        <use
           xlink:href="#DejaVuSans-72"
           x="119.04297"
           id="use274"
           y="0"
           width="100%"
           height="100%" />
        <use
           xlink:href="#DejaVuSans-61"
           x="160.15625"
           id="use276"
           y="0"
           width="100%"
           height="100%" />
        <use
           xlink:href="#DejaVuSans-72"
           x="221.43555"
           id="use278"
           y="0"
           width="100%"
           height="100%" />
        <use
           xlink:href="#DejaVuSans-79"
           x="262.54883"
           id="use280"
           y="0"
           width="100%"
           height="100%" />
        <use
           xlink:href="#DejaVuSans-3d"
           x="321.72852"
           id="use282"
           y="0"
           width="100%"
           height="100%" />
        <use
           xlink:href="#DejaVuSans-73"
           x="405.51758"
           id="use284"
           y="0"
           width="100%"
           height="100%" />
        <use
           xlink:href="#DejaVuSans-6f"
           x="457.61719"
           id="use286"
           y="0"
           width="100%"
           height="100%" />
        <use
           xlink:href="#DejaVuSans-6d"
           x="518.79883"
           id="use288"
           y="0"
           width="100%"
           height="100%" />
        <use
           xlink:href="#DejaVuSans-65"
           x="616.21094"
           id="use290"
           y="0"
           width="100%"
           height="100%" />
        <use
           xlink:href="#DejaVuSans-74"
           x="677.73438"
           id="use292"
           y="0"
           width="100%"
           height="100%" />
        <use
           xlink:href="#DejaVuSans-68"
           x="716.94336"
           id="use294"
           y="0"
           width="100%"
           height="100%" />
        <use
           xlink:href="#DejaVuSans-69"
           x="780.32227"
           id="use296"
           y="0"
           width="100%"
           height="100%" />
        <use
           xlink:href="#DejaVuSans-6e"
           x="808.10547"
           id="use298"
           y="0"
           width="100%"
           height="100%" />
        <use
           xlink:href="#DejaVuSans-67"
           x="871.48438"
           id="use300"
           y="0"
           width="100%"
           height="100%" />
        <use
           xlink:href="#DejaVuSans-20"
           x="934.96094"
           id="use302"
           y="0"
           width="100%"
           height="100%" />
        <use
           xlink:href="#DejaVuSans-65"
           x="966.74805"
           id="use304"
           y="0"
           width="100%"
           height="100%" />
        <use
           xlink:href="#DejaVuSans-6c"
           x="1028.2715"
           id="use306"
           y="0"
           width="100%"
           height="100%" />
        <use
           xlink:href="#DejaVuSans-73"
           x="1056.0547"
           id="use308"
           y="0"
           width="100%"
           height="100%" />
        <use
           xlink:href="#DejaVuSans-65"
           x="1108.1543"
           id="use310"
           y="0"
           width="100%"
           height="100%" />
        <use
           xlink:href="#DejaVuSans-2e"
           x="1169.6777"
           id="use312"
           y="0"
           width="100%"
           height="100%" />
        <use
           xlink:href="#DejaVuSans-2e"
           x="1201.4648"
           id="use314"
           y="0"
           width="100%"
           height="100%" />
        <use
           xlink:href="#DejaVuSans-2e"
           x="1233.252"
           id="use316"
           y="0"
           width="100%"
           height="100%" />
      </g>
    </g>
    <g
       id="text_10">
      <!--  0% -->
      <g
         transform="matrix(0.1,0,0,-0.1,290.50555,177.46242)"
         id="g330">
        <defs
           id="defs322">
          <path
             id="DejaVuSans-30"
             d="m 2034,4250 q -487,0 -733,-480 -245,-479 -245,-1442 0,-959 245,-1439 246,-480 733,-480 491,0 736,480 246,480 246,1439 0,963 -246,1442 -245,480 -736,480 z m 0,500 q 785,0 1199,-621 414,-620 414,-1801 0,-1178 -414,-1799 -414,-620 -1199,-620 -784,0 -1198,620 -414,621 -414,1799 0,1181 414,1801 414,621 1198,621 z"
             transform="scale(0.015625)" />
        </defs>
        <use
           xlink:href="#DejaVuSans-20"
           id="use324"
           x="0"
           y="0"
           width="100%"
           height="100%" />
        <use
           xlink:href="#DejaVuSans-30"
           x="31.787109"
           id="use326"
           y="0"
           width="100%"
           height="100%" />
        <use
           xlink:href="#DejaVuSans-25"
           x="95.410156"
           id="use328"
           y="0"
           width="100%"
           height="100%" />
      </g>
    </g>
  </g>
</svg>
